<svg viewBox="0 700 595.11 150" xmlns="http://www.w3.org/2000/svg"><g fill="#005769"><path d="m181.02 747.74-.99-.25c.23-.18.38-.38.38-.58 0-.45.34-.73.51-1.09.28-.58-.67-1.18-1.27-1.16l-.13-.78s.12-.25.12-.24c0 0 .1.06.17.1l.4.38c-.13-.49-.16-.65-.18-1.01l-.29-.29-.12-1.19.41.7c.18-.57.06-1.26-.13-1.79.09-.19.32-.77.12-.77h-.4c-.32 0 .39-.16.18-1.28l-.07-.36c-.03-.15-.57.43-.56.48l.13.37c.2.55-.81 1.14-.91 1.06-.42-.38-.09.07-.53-1.22-.07-.22-.11-.64-.28-.64h-.4c-.07 0 0-.29.05-.29h.34c.17-.57-.35-1.04-.52-1.56-.18-.52-.43-1.02-.77-1.39-.13-.81-.75-1.72-1.24-2.42-.61-.87-.82-1.22-1.62-.99-.05.02 0-.13.04-.25l.38-1.44c.07-.25.11-.46.15-.65.12.17.35.11.46.08-.16-.14-.28-.26-.41-.38.13-.89-.1-.89-.13-.79-.06.26-.17.35-.26.41-.72-.71-.27-.08-1.3-.74l.18-.12s-.16-.09-.16-.12v-.3c0-.07-.18-.14-.22-.21-.22-.34-.66-.65-1.07-.77.02-.14.06-.3 0-.35-.15-.11-.68.13-.65.23h.33c.15 0 .1.39.23.33l.11-.05s-.03.3.05.31l.38.03-.2.3.73-.11-.14.2.44.13c-.12.12-.32.29-.29.38.06.16.38.3.48.42l.75.87.12-.21h.05v.14c-.07.01-.07.06 0 .15v1.31c-.14.09-.65.12-.84.04-.16-.06-.29-.44-.45-.56l-1.39-1.05s-.23-.07-.23-.02l.03.33c.03.31.29.38.63.58.53.31 1.16.95 1.62 1.41.02.91-.68 1.53-1.53 1.58-.41.02-1.24.24-1.63.3-.09.02-.2-.37-.11-.36l.39.05c.1.01.1-.33.09-.44 0-.07-.08-.03-.35-.01l-.29-.82-.7.03c-.23.19-.44.36-.6.39-.16.04-.55-.33-.53-.51.07-.95.19-2.03.41-3 .33.28.64.57.96.9.23.24.68.35.98.35l-.31.26h.53c-.1-.12-.23-.26-.18-.27.04 0 .12-.02.15 0l.21.09c-.2-.48-.42-.13-.68-.34-.02-.02-.02-.06 0-.07l.16-.03c-.6-.41-1.15-.84-1.71-1.37v-.05c.19-.7.31-1.16.4-1.56h.02l.88.82c.07.09.11.21.17.2.07-.02.26-.06.24-.06l-.37-.46s-.24-.05-.26-.11l-.05-.16-.27-.23c-.09-.08-.2-.15-.32-.21.08-.42.14-.83.23-1.46l.17-.18-.14-.04v-.06l.14-1.02v-.02l.5.3c.16.1.53.29.77.28v.11c-.05.05-.09.09 0 .1-.02.28-.04.56-.03.87.2-.29.35-.6.44-.91.03 0 .06 0 .08-.01-.02-.03-.04-.04-.07-.07.12-.48.07-.96-.25-1.41l-.08.69c-.02.17-.04.33-.06.49-.1-.03-.18-.05-.24-.1l-.56-.49s-.13-.09-.21-.12c0-.01.03-.03.04-.04.05-.05-.05-.19-.09-.29l-.06-.7c-.22-.07-.29-.1-.3-.13l-.17-.86c-.15.59-.19 1.13-.22 1.67-.17-.08-.28-.18-.31-.38h-.27s.03.17.07.19l.13.07c.07.14.21.28.37.35 0 .25-.03.5-.06.75l-.05.46c0-.06-.03-.11-.05-.1l-.23.09-.08-.23s-.05.01-.07.03l-.11.12-.08-.28c-.05-.16-.38-.02-.54-.37l-.27.06c-.06.01-.09-.26-.14-.3l-.66-.46-.25.08c-.09.03-.05-.26-.32-.36l.46-.92-1.11.6-.29-.18c-.14-.09-.27-.22-.44-.27-.16-.05-.36.03-.51.23.26.09.5.12.76.14l.14.25c.3.11.58.28.8.47h.36c0 .07-.08.2-.04.19l.24-.04-.09.18s.07.14.08.14c.11-.11.24-.21.35-.24l-.26.26c.27.11.43.2.59.35.1.05.32.05.5.05l.02.24.66.47.4-.03-.19.25h.35l-.11.98c-.02.17-.04.32-.05.45-.03.07-.04.15-.03.23-.15 1.15-.16.36-.36 1.46-.07 0-.14.02-.21.05v-.35c-.02-.21-.09-.38-.23-.37-.06 0-.14.03-.21.07l.02-.02c-.22-.23-2.61-1.66-2.63-1.62l-.11.15c-.04.06-.06.12-.1.11-.03 0-.12-.04-.1-.07l.11-.13c.05-.05.11-.14.07-.16-.02-.01-.15-.1-.18-.1l-.72.03c.05-.08.08-.14.11-.14l.31-.04-1.2-.68-.39.24.53.31c-.1.29-.21.65-.24.95l-.15 1.45c-.03.24-.04.44-.07.65l-.67-.38c-.06-.15-.11-.24-.18-.18l-.06.05s-.32 0-.28 0c.16-.02-.04-.16-.4-.36l-.93-1.27c.02-.15.03-.2.03-.2.03-.08.98-.04 1.08 1.25 0 .09.3.39.35.31l.19-.31.17-.3c.1-.18-.84-.4-.67-1.11l1.32.51-.98-1.67h-.87s-.03.08-.04.12l-.16 1.01-1.04-.74c.05-.36-.04-.75-.47-.65l.32.82-.22.29-.92-.77c-.17-.2-.15-.97-.13-1.68l1.23.47c.43.16.84.3 1.26.49l.97.44c.1.04.27.19.38.23l.58.21-.11-.51-1.28-.63-.35.16.14-.16c.22-.25-.85.05-1.58-.53-.03-.02-.2-.04-.19-.06l.09-.18-.85-.3s-.19-.05-.19-.02l-.02.22-.07-.04c.02-.66.02-1.22-.15-1.11l-.34.21-.18-.2.53-.42-.43-.36c.35.11.68.2 1.07.05-.62-.25-1.03-.17-1.58-.38l-1.08-.42c-.41-.16-.8-.46-1.27-.28l.95.32s.18.08.17.12l-.03.21c.33-.1.74-.05 1.02.15l-.3.17c.15.14.4-.11.52-.09.18.03.36.09.52.14-.11-.05-.39.35-.4.48l-.04.79-.14.04-.38.1c-.08.02-.19-.14-.24-.22l-.14-.23c-.03-.06-.22.08-.28.11l-.15.09s-.03-.04 0-.06l.15-.17-1.57-.39.27-.24-.92-.8-.86.45c-.11.06-.15.12-.16.19-.16.07-.25.15-.25.06v-.25l-.68-.15-1.32-.28-1.91-.42-2.99-.41c-1.19-.16-2.3-.31-3.51-.36h-.06s-.08 0-.11-.02c-.14-.08-.29-.54-.3-.7 0-.07.24-.22.18-.26l-.2-.16c-.05-.04-.21.15-.27.23-.33.5-.28.29-1.82.11-.23-.03-.72-.19-.88-.35-.12-.11-.24-.2-.35-.29.13-.04.26-.07.4-.12.15-.05.35.01.48.09.06-.02.29-.17.34-.12l.22.21c.33-.14.63-.19.98-.16l.88.07c.06.04.12.08.16.13 1.24 1.38 2.24.48 1.88.82l-.21.2c-.06.05-.06.28.02.31l.48.14.48-.71.61.59 1.07-.79c-.91-.05-1.81-.2-2.6-.54.07.02.13.03.19.04.27.03.66-.3.84.06l.22-.16c.06-.04.25.02.29.06l-.21.33.46-.25c.08-.04.23.07.32.1.14-.08.23-.16.28-.11l.2.22.26-.34-.25-.08c-.29-.09-.54-.12-.85-.15l-2.59-.2c-.34-.24-.65-.53-.92-.89l-1.9-.03h-.48c-.1 0-.21-.48-.31-.64.03-.03.05-.05.05-.08l-1.51.1.82-.84c.38.2.66.33.85.28.17-.04.4-.34.48-.57-1.94-.83-2.88.82-3.72-.48-.77.11-1.69.11-2.23-.72l-.78.44c-1.31.27-2.59.4-3.87.75-.45.12-.81.36-1.34.23-.92-.22-.4.94-1.3.61-.49-.18-.84-.11-1.31 0l-1.58.38c-.42.1-1.34.02-2.12.21-.54.13-1.14.33-1.65.4-2.12.29-.58.22-2.8 1.07-.58.06-1.18.42-1.73.63l-2.56 1c-.39.15-.64.34-1.03.5l-1.45.61c-.39.16-.65.4-1.04.61l-1.54.84c-.33.18-.72.95-2.14 1.78-.93.55-1.82 1.55-1.88 2.58l.7-.33c.41-.19.63-.51.66-.96l.44.19.38-1.04 2.26-1.07c.1-.23.28-.64.42-.77.1-.09.5.12.5.26l-.02.63c0 .19.46.25.74.32l.15-1 .72-.92c.07-.08.34-.19.4-.12.05.06.19.22.14.27l-.26.25c-.05.05-.16.23-.19.3-.18.56 1.08-.42 1.67-.73 2.37-1.25 1.18-.72 1.48-1.31.04-.09.33-.06.39.02l.31.39c.03-.34.03-.61.09-.79s.67-.07.88-.01l1.53-.61c.15-.06.59.03.69-.09.05-.06.05-.43-.02-.41s-.21.07-.28.11l-.27.12c.18-.36.42-.48.69-.6l.98-.44.82-.25c.52-.16 1.05-.59 1.68-.59.53 0 .86-.14 1.37-.44l.51.8c.31-.38.73.02 1.14 0 .23 0 .45-.02.65-.03-.04.07-.07.16-.09.26l.65-.14c.17-.04.32-.1.42-.24.11-.02.22-.04.32-.06-.07.05-.13.1-.18.17.19-.08.37-.17.53-.26.4-.11.68-.23.94-.33 0 .03.01.06.03.06l.24-.02s.04-.08.04-.16l.12-.03s-.04.07-.05.12l.34-.17c.34-.03.76 0 1.43.21l.58-.63c.26.04.59.12.68 0l.36-.45c.26.35.43.49.82.57 0 0-.02 0-.04.02-.07.13-.17.28-.12.33l.26.26-.43.42.52-.16.04-.15c.51.42 1.91 1.19 2.42.96.46-.2.83-.51 1.36-.26.02 0 .04.02.05.03l-.34.04c-.23.03-.46.1-.61.23l.61.05h.45c.17-.01.33-.02.5-.03.3.13.59.24.82.22.55-.04 1.11-.17 1.21.54l-.45-.18c-.23.37-.69.62-1.14.58l-.1.2s-.07 0-.11.01l-1.92.27c-.5.07-1 .16-1.32.52.15-.01.32-.03.39-.04l1.38-.18c.64-.08 1.06-.44 1.04-.32l-.03.18c.14-.03.27-.05.38-.07l-.12.25c-.4.07-.38.08-.12.05l.97.36c.57.21 1.26.34 1.65.83-.03.21-.14.54 0 .58.69.22.74-.42 1.11-.1.1.09.25.5.14.56-.12.06-.31.16-.49.26-.83.02-1.64.06-2.25.14.11.09.17.12.25.17-.19.06-.36.13-.53.22l-.55.07c.07.05.15.08.22.1-.4.25-.73.25-1.03.19l-.12-.38.54.04-.38.25c.1.06.34.08.47.01.08-.04.14-.16.2-.26l.98-.28c-.39-.19-.69 0-1.03.03-.96.1-1.9.28-2.82.5-.44 0-.89-.03-1.34-.15-.6-.17-1.24-.01-1.78.01-1.28.06-1.65.16-3.26.1-.28.05-1.5.62-1.62.2l-.13-.47c-.39.53-.9.21-1.32.24.12-.15.45-.13.57-.21l.9-.58c.08.11.14.19.14.19l.64-.28c.05-.04.12-.25.18-.26.07-.01.26-.04.24-.04l-.18.24s.02.09.05.07.15-.1.19-.12l1.35-.47 1.73-.66c.11-.28.28-.29.53-.29-.16.26-.25.48-.19.5l.46.17c.06-.26.02-.54.15-.59l.39-.14h.02l.19-.07.75-.27.17.16c.14-.12.27-.24.39-.35h.02v-.03c.1-.1.19-.2.28-.31-.1.03-.19.06-.27.09l.04-.93-.58.23-.12-.61c.23-.08.46-.14.71-.2l.64-.18c.06.04.06.05.07.24l.62-.56-1.08.2-1.01.23-.02-.11c-.08.06-.14.12-.21.16l-.43.1-.65.12c-.22-.08-.44-.15-.9.21-.27.08-.54.18-.79.28-.14.06-.45.07-.62.15l-.73.35c-.38.18-1 .18-1.07.74.25-.2.5-.38.76-.48l1.08-.4c.07.07.16.19.22.16l.23-.15h.02c.05.2.11.38.04.44l-.39.36.75.07c.15.01.07-.36.15-.44l.39.42c.33.36.87-1.07 1.45-.52-.26.11-.54.43-.76.74-1.09.29-2.15.65-3.21 1.11.2.15.28.15.11.21l-.29-.17c-.11-.06-1.26.56-1.26.56l-.96.33c-.62.21-1.23.43-1.84.7l-.27.12c-.37.06-.74.11-1.12.15-.08.12-.19.3-.31.48l-1.25.56c-2.86 1.27-5.75 2.61-8.1 4.66-.18.1-.33.23-.45.39l-.19.17.04.09s-.02.05-.04.08h-.21s0 .16.01.21c.03.07.05.09.09.08-.04.14-.07.27-.09.42l-.35-.08.16-.38c-.19.05-.28.18-.34.34l-.31-.07c-.16-.03-.54.13-.69.2l-1.2.93c.19 1-.06 1.01-.95 2.06-.08.09-.25 0-.49-.11-1.33 1.79-.13.76-1.23 2.2-.16.21-.1.88-.44.96l-1.12-.56.75-.85c-.14-.09-.24-.18-.33-.27l.22-.34s.03-.03.04-.05c.02.11.04.23.05.37.57-.55 2.77-2.5 1.85-3.34.19-.41.51-.71.77-.92-.15.2-.28.41-.39.63-.03.05-.04.21 0 .24.05.02.17 0 .19-.05.08-.17-.33.07.59-.9l.4-.42.72-.76c.21-.23.41-.45.49-.71-.29.09-.39.37-.59.54-.38.31-.75.65-1.08 1.02l-.11-.35c.09-.2.18-.62.14-.85-.02-.13-.32-.09-.55-.04l.07-.18s.24.02.26-.02l.31-.51c.22-.36 1.32-1.38 1.76-1.7l-.3-.12c-.26.25-.57.56-.88.81l-.56.46c-.32.27-.53.54-.77.9-.15.24-.54.39-.42.89l-.21-.18c-.07.23-.22.37-.44.48.02.18.02.22-.11.13l-.38.58c-.1.15-.18.29-.3.5.03.04-.08-.13-.1-.09-.46.68-.76.85-1.19 1.54-.1.16-.13.2-.22.29-.37.34-.65.83-.93 1.28l-.37.58c-.08-.21-.13-.43-.14-.64-.26.4-.96.66-1.36.69-.02 0-.04-.01-.07-.03l.04-.13-.08.08c-.06-.09-.11-.26-.19-.45-.43.77-1.51.72-2.25.11l.84-1.9c.3-.68.64-1.28 1.43-1.68-.17-2.27 1.2-2.37 1.19-2.48l-.05-.53c-.25.18-.67.41-.85.6-1.92 2.19-.58.06-2.59 3.48-1.34 2.29-.79 2.5-2.34 4.1-.21 1.21-.24 1.65-.95 2.39-.57.6-1.01 1.38-1.46 2.11-.76 1.23-1.55 2.41-2.2 3.81.7.1.6-.6.84-.91l1.41-1.81-1.05 3.75c-.06.2-.07.75-.24.84-.15.08-.4.12-.71.19-.23.47-.08 1.05-.03 1.65.05.56-.59 2.9-1.18 2.93-.13-.45-.16-.66-.44-.93-.13 1.46.08 2.83.43 4.21.03.19 0 .66-.01.85.82.89.64 1.83.44 2.86-.08.41-.03 1-.22 1.45l.15.98s.18.18.17.13l-.02-.27c-.08-1.08.48.12.44-2.48 0-.34.88-.61.92-.26.09.77-.24 1.67-.11 2.38.09.49.08.73.02 1.2-.32 2.52.2 2.45.27 3.59.02.36-.19 1.05 0 1.33.1.15.25.26.24.33s-.08.27-.06.35l.2.83c.17.69.39 1.46.53 2.13l.16.8.26 1.28.93-.17c.25.33.36.83.19 1.18-.62-.14-.32-1.16-.56-.92-.49.5-.31.63.02 1.37.16-.1.23-.15.24-.15s.09.18.07.22l-.28.64c.15 0 .37 0 .38-.08l.09-.59c.01-.1.29-.02.33.07l.17.38.31-1.19c.03-.11-.07-.44-.11-.57.3-1.97-1.27-.92-.5-3.1l.2.63c.21.31.32.6.4.96l.29-.22c.27-.2.59 1.77.84 2.55l.57 1.84.41 1.44c.07.24.32.68.47.95l.64 1.13.89 1.63c.8 1.46 1.69 2.37 1.35 3.59.41-.15.76-.34.93-.22.39.26 1.05 1.1.52 1.7.85 1.41 1.83 1.77 3.13 2.99l1.32 1.24.19.45c.04.1.33.08.38-.01l.18-.32c.08.09.16.18.25.28l1.62 1.82c.17.19.34.51.51.68l.69.67c.3.29.56.6.83.9-.11-.06-.23-.11-.35-.15-.96-.34-1.98-1.13-2.81-1.64l-1.31-.81c-2.67-1.65-1.4-1.42-3.54-2.54l-.25-.23c-.06-.06-.31.36-.25.42l1.35 1.21c.61.55 2.66 1.96 3.41 2.37.53.29 2.28 1.59 2.23 1.68l-.17.28c.41.21.81.47 1.23.76l1.66 1.14c1.07.74 2.15 1.42 3.27 2.06l1.15.67c.32.19.89.33 1.21.43.88.67 2.24 1.07 3.48 1.49 2.89.98 3.73 1.02 6.84 1.2.46.03.74.02 1.21.23.35.15.86.28 1.33.2l1.43-.25c-.2.03 3.75.2 4.23-.53.52.14 1.19.12 1.9-.1l-.57-.32c1.4-.79 1.6-.65 3.14-.94.65.2 1.08.26 1.58-.23.84-.81 1.77-.1 2.28-.78.5.22 1.07.18 1.63.08l1.53-.28c.56-.1 1.02-.2 1.55-.41.29-.12.72-.18.98-.26l1.65-.56c1.08-.36 2.08-.94 3.09-1.46l3.03-1.55c2.47-1.26 3.69-2.73 5.67-4.36.34-.28.77-.52 1.09-.83l1.99-1.97c-.46.03-.85.37-1.17.71-1.85 1.92-5.77 5.19-8.11 6.24-2.29 1.03-2.49 1.63-5.09 2.46l-2.92.92c-.17.05-.52.22-.68.28-1.04.07-2.23.26-3.27.14-.29-.03-.57-.08-.84-.1.08-.04.16-.09.25-.11.52-.18 1.06-.3 1.57-.54 1.51-.74 3-1.39 4.61-1.95.32-.11.69-.35 1.01-.5l1.81-.85c1.05-.49 2.16-.86 3.06-1.59.48-.4.93-.76 1.44-1.11 1.08-.73 2.06-1.5 3.24-2.16.1.33-2.1 1.8-2.32 1.94-.52.34-1.04.6-1.46 1.03l1.27-.77 1.1-.74c.71-.48 1.38-.91 2.01-1.5l-.33-.19.62-.55c.25-.22.47-.39.58-.76-1.25.05-.77.35-1.8 1.1l-3.29 2.37-1.82 1.38c-.8.61-1.78.94-2.69 1.36l-1.6.73c-.83.38-1.6.76-2.47 1.04-1.02.33-1.95.73-2.9 1.2-.48.23-.97.43-1.47.64l-1.17.5s-.31-.43-.37-.34c-.14.18-.37.49-.46.65-.02.03-.04.05-.05.08-.37.16-.73.37-1.1.55-.12-.03-.25-.07-.39-.15l-.03.33c-.11.04-.22.08-.34.11l-.1.02c-.11-.07-.23-.12-.33-.12-.29 0-.67.19-.87.35-.11.09-.5.1-.63.16-.03.01-.05.03-.08.04l-1.04.24-1.53.24c-.83.13-1.64.33-2.46.46l-.47-.14s-.02.1 0 .2c-.15.02-.3.04-.46.05l-1.51.11-.07-.18c-.03-.08-.32.02-.41 0-.87-.24-2.01-.45-2.98-.56-.38-.04-.92.03-1.23-.02-.8-.13-1.57-.32-2.34-.53.35.07.71.14 1.05.19l.76.12h.74c.62.01 1.18.01 1.79 0l2.16-.04c.12 0 .33-.02.43-.03l1.52-.17 1.91-.25 1.58-.33.84-.15.78-.15.68-.15c.64-.14 1.24-.24 1.85-.43l.99-.3c.5-.15.96-.34 1.46-.6l.53-.27c.27-.14.56-.3.85-.43l3.47-1.53c.76-.33 1.48-.64 2.25-.93 1.4-.52 2.68-1.16 4-1.84.94-.48 1.91-.82 2.71-1.51.82-.7 1.65-1.3 2.51-1.94l1.44-1.07c.36-.27 2.2-1.61 2.35-2.33 1.23-.98 2.54-2.62 3.45-3.81.52-.67.99-1.32 1.48-2.03l-.15-.53-.44.3c-.13.09.08.62-.12.63-.05 0-.07-.01-.23-.07l-.62.95c-.24.37-.58.72-.76 1.11l-.44.91c-.15-.01-.37-.08-.4 0l-.12.28-.68.68c-.15.15-.34.31-.54.53l-.78.89c-.42.2-.76.51-1.07.88-.49.56-1.09.95-1.65 1.38l-2.85 2.21c-.74.58-1.43 1.2-2.27 1.61l-1.89.91c-1.04.5-2 1.02-3.08 1.4l-1.35.48-3.11 1.38c-.86.38-1.69.72-2.51 1.18-1.16.65-2.82 1.1-4.15 1.38l-4.1.85-.77.16c-.32.07-.69.15-1 .18l-1.06.11-1.25.08c-1.26.08-3.11.14-4.32 0l-.81-.09c-2.23-.26-2.42-.7-4.09-1.06-.5-.11-.99-.33-1.48-.52l-.63-.25c-2.22-.87-3.58-1.98-5.29-3.58l-1.16-1.09-.63-.6c-.77-.74-.76-.86-1.39-1.46-.72-.68-.62-.77-1.5-1.63-.2-.2-.4-.42-.59-.64l-.08-.09c1.61.91 1.15.29 2.57 1.29l.87.61c1.28 1.33 2.5 2.52 3.5 3.4 1.09.97 2.27 1.84 3.6 2.46 2.14.99 4.37 1.62 6.69 2.02 1.64.28 3.24.15 4.89.05 1.29-.08 2.49-.28 3.76-.46 1.18-.17 2.28-.51 3.45-.74 4.41-.86 6.17-2.19 10.26-3.96 2.37-1.03 4.68-2 6.91-3.34.91-.55 1.7-1.18 2.52-1.85l3.43-2.81c.25-.21 2.14-2.32 1.87-2.63l-.73.77 1.62-1.94c.78-.93 2.12-2.87 2.48-4-.36 0-.34.27-.46.47l-.59 1.06-.51.68c-.14.18-.24.36-.39.54l-1.77 2.12-1.27 1.51s.05.04.15.09l-.07.3-.78.82c-.6.64-1.29 1.12-1.94 1.64l-1.98 1.6c-.96.77-1.91 1.48-3.01 2.03l-2.62 1.32-3.58 1.5-3.32 1.48-2.02.99c-1.55.76-4.19 1.13-5.91 1.58-2.17.57-4.1.72-6.3.91-2.47.21-4.82-.09-7.18-.86-1.41-.46-2.8-.83-4.1-1.55-1.53-.84-2.84-1.97-4.08-3.2l-.84-.83c1 .77 1.91 1.57 3.03 2.22l2.07 1.2c1.08.62 2.34.94 3.56 1.31l1.7.52 1.76.54-.93-.94c.43.1.87.2 1.32.28 2.58.47 7.04-.14 9.63-.74l4.01-.94c.36-.08.71-.19 1.05-.3l.06.12c.18.38.18-.68 2.15-.61-.25-.04-.51-.06-.77-.08.6-.27 1.19-.56 1.8-.86 1.53-.76 3.04-1.43 4.6-2.08 1.5-.63 2.88-1.29 4.32-2.04 1.42-.74 2.59-1.61 3.82-2.61l2.68-2.19c1.07-.87 1.99-1.8 2.8-2.92l.38-.52-.85.34c.22-.43.51-.82.89-1.17l.9-.81c.55-.5 1.01-.99 1.54-1.57-.48.29-1.19.97-1.7 1.26-.36.2-.64.44-.89.77l-.33.12 1.14-1.16.67-.74c.35-.39.66-.69 1.06-1.21l-.83.57-.36.21c.21.05.24.07.12.1-.91.43-.84.9-1.8 1.48l.41-.64s.21-.09.26-.11c.03-.01 0-.09-.03-.15l.45-.4s.24-.04.24-.1l.03-.2c.32-.35.79-.67 1.05-1.06l.5-.74-.28-.19-.39.64c.26-.04.06.15 0 .21-.03.04-.13-.03-.21-.08-.2.21-.39.43-.61.6l.47-.64c.16-.23.45-.51.64-.69.09-.94.4-.44.75-1.71-1 1.46-2.02 2.84-3.48 3.87 1.22-1.16 2.31-2.4 3.13-3.91l1.66-3.09c.56-.54 1.08-1.14.97-1.38-.24.25-.45.53-.66.79.58-1.1 1.02-2.21 1.55-3.33l.61-1.29.54-1.21.38-.06-.28-.17 1.21-2.68c.12-.27.19-.64.21-.92-.41.96-.81 1.83-1.24 2.75l-.36.78c-.26.04-.95.82-1.08.98l-.5.58c.48-.98.89-1.93 1.36-2.91l.42-.87c.17-.35.26-.82.34-1.22l-.87 2.03-.57 1.3c-.28.65-.65 1.24-.86 1.88-.3.36-.55 1.06-.77 1.46l-.27.23c.13-.76.35-.88.75-1.68l.29-.59c.26-.52.5-.99.71-1.47l.63-1.39c.19-.42.35-.82.45-1.28.14-.65.52-1.28.57-1.94.02-.26.02-.5.11-.77l.25-.77c.08-.25.07-.7.03-.99-.08-.6.34-1.11.05-1.72-.18.71-.15 1.41-.23 2.11-.09.74-.2 1.46-.41 2.18-.25.84-.46 1.67-.83 2.47l-.72 1.57-1.48 3.35-.59 1.25v.06l-.18.16h.2s0 .02.02.02c.05 0 .24 0 .23-.05.25-.08.48-.24.79-.46.21-.44.42-1.05.67-1.4l1.25-1.74.1-.02-.21.45-1.16 2.51-1.69 3.41c-.08.06-.15.12-.23.16l-.81.39.69-1.26c-.07-.23-.7 1-.78 1.3l-.21.1c.02.07.33.31.48.27.06-.02.31-.21.63-.48-1.71 3.41-2.9 4.82-5.68 7.28.11-.46.26-.68.5-.95l2.15-2.46c.34-.39 1.14-1.54 1.24-1.97l-1.15 1.58c-.33.45-.71.83-1.15 1.19l.62-.75c.5-.61.81-.89 1.19-1.76.1-.24.21-.38.35-.61l.55-.9c.06-.1.57-1.21.45-1.03l.37-.61-.25-.17-.67 1.34c-.44.88-.93 1.68-1.48 2.48-.1.14-.54.87-.86.95l.42-.65c.47-.73-.02.23.8-1.19l.21-.35c.11-.19.17-.35.24-.56.16-.47.48-.91.67-1.38.1-.24.35-.52.46-.73.05-.13.11-.37.19-.54l.7-1.55.59-1.13c.07-.12.14-.39.21-.54l.34-.76c.06-.13.1-.42.2-.53.37-.42.47-.91.67-1.39l.55-1.3c.19-.43.36-.54.59-1.42.12-.46.29-.86.48-1.34.23-.09.13-.09-.09-.04l.15-.56.1.07c.26-.44.23-.83.15-1.19.02-.17.02-.33.02-.5-.04.07-.07.14-.09.21-.11-.41-.2-.78.08-1.17v.06l.02.17s.16 0 .15-.02l-.06-.17s.03-.17 0-.16h-.02c.09-.09.2-.19.34-.29-.04-.46-.1-1.06-.1-1.43l.83-1.49c.04-.07-.08-.3-.12-.25l-.16.2-.21.26s-.07-.04-.09-.08c-.5-.73 1.55-1.71.68-1.66l-.38.02s-.05-.12-.04-.21l.02-.87c0-.12-.24-.43-.16-.53l.31-.4.35.49.56-.96c-.03-.23 0-.42.04-.6.04.1.1.19.19.26l-.14-.4c.07-.16.18-.31.36-.44-1.01-.55-1.19.52-1.72.37-.1-.03-.12-.38-.06-.48l.97-1.52c0-.22.03-.46.17-.5l.62-.16.27-1.09c.05-.19-.25-.49-.44-.73-.14-.19.25-.62.58-.75l.17 1.56.39.04c.06 0 .15.2.1.2h-.42c.07.06.17.16.17.16l.35.08s0 .16-.04.18l-.26.22c-.06.05.05.23.11.27.06.05.27.02.3-.05l.15-.39c.02-.06.08 0 .34.18.24-.11.35-.56.33-1.05h.22l.16.4c.03.07.29.05.27-.03l-.08-.51s-.05.03-.09.05c-.06.29-.09-.04-.1-.27-.05-.15-.12-.29-.05-.29.1 0 .36 0 .38.06l.29.84c.08.22.1.65.27.7l.64.19c-.11.29-.2.62-.19.93l.06 1.29c.38 1.14.63 2.09.25 3.17-.03.08 0 .37.08.37h.35c.06.14.17.51.25.84.04.1.15.28.15.22.29-2.18-.04-4.17-.78-5.93l.36-1.22c.03-.1.28-.28.37-.32s.55.68.3 1.12c-.39.68 1.16 1.2.56 1.4l-.47.15.89.8c.18 1.84-.07.76-.08 2.41 0 2.09.48.83.56 2.7l.29-1.2c.18-.73.25-1.36.16-2.13l-.24-2.12.09.05h-.06zm-41.99-30.68c-.07.02-.14.03-.19.03h-.69l-.64.07c-.28-.21-.37-.3.03-.36.3-.05.74.1 1.16.2.1.02.21.04.33.05zm-1.37-1.26c.25-.02.53-.08.72-.16-.06.1-.13.23-.18.23-.14.02-.34 0-.55-.07zm23.85 62.06c-.64.49-1.25 1.07-1.86 1.6-1.69 1.45-3.37 2.8-5.21 4.07-.12.09-.25.16-.38.24h-.07l-.45-.09c1.69-1.03 3.05-2.13 5.47-3.94.56-.42.98-.94 1.53-1.42.24-.21.44-.64.62-.93l.13-.22s.19-.09.18-.03v.23c0 .13 0 .35.03.49zm.64.38c.04.35-.23.51-.51.53zm-.43 0s.12-.28.14-.28c.07.19 0 .31-.14.28zm-28.51 14.87-1 .03.59-.19c.12-.04.32.02.41.16zm-1.61.04c-.34.11-.6.09-.88 0 .32-.07.6-.05.88 0zm-2.84-.14-.22-.02c-.07 0 0-.1.06-.25l.19.03c.05 0 .02.23-.03.23zm-.46-.07-.52-.12c.19-.12.36-.07.52.12zm-2.79-.86s-.08.17-.12.14l-.2-.13s.13-.13.19-.12h.02s.08.06.1.1h.01zm-.48-.06c-.04.1-.38-.01-.4-.15 0-.04.08-.11.14-.14l.09.03.17.25zm-28.46-23.95.08-2.09s.15-.64.25-1.36l.26 1.48c.03.16 0 .34.12.42-.08.9.36 1.37-.71 1.54zm.7-25.46.38-.89-.04.42c-.22.34-.35.62-.38.95l-.05-.03c.15-.49.26-.87.08-.45zm.59-1.88.18-.04c-.05.05-.11.1-.18.15-.02-.04-.03-.11 0-.11zm.43-.55c-.02.11-.05.21-.1.3.02-.08.04-.17.06-.22.01-.03.02-.05.03-.07h.01zm48.37-20.35c.25.02.4.02.6.04 0 .01-.04.02-.05.04-.06.1-.13.58-.24.53l-.46-.22c-.08-.04.03-.21.14-.38h.01zm.89 1.93c-.09.14-.22.34-.32.32l-.46-.12-.93-.24s-.19-.18-.22-.21c-.03-.04.13-.19.17-.17l.18.08c.56-.08 1.14 0 1.57.34zm-10.2 68.54c.06.1.11.21.15.36 0 .04 0 .08-.02.12-.31.07-.61.13-.92.19-.04-.03-.08-.06-.09-.1l.04-.41c.28-.05.56-.1.84-.15zm-40.38-26.93c0-.11-.02-.21-.04-.31 0-.07-.02-.15-.02-.22v-.1l.65-.82c.17 1.08.45 2.11.82 3.08.07.18 0 .66-.14.77-.15.1-.49.07-.79.04-.03.08-.06.16-.08.24l-.2-1.3-.17-1.25s-.01-.09-.02-.13zm63.87-31.21c-.37-.24-.73-.48-1.12-.7.45-.41 1.34-.11 1.73.42l-.62.28zm-1.3.67s-.03-.05-.04-.08c.09.05.19.11.28.17-.09 0-.18-.02-.24-.09zm-47.61 39.53c.04.1.09.2.13.29-.04-.03-.09-.06-.14-.1v-.19zm.32.29c.02.07-.01.08-.08.06-.07-.13-.15-.25-.24-.37.03-.21.12-.32.2-.42l.3.5s-.1.12-.18.23zm-4.15-18.12.24-.73c-.05.25-.09.58-.12.92 0 0-.12-.19-.12-.19zm46.17-29.55c-.08-.01-.16-.03-.23-.07zm-.43-.25c.17-.14.37-.14.55.05zm-.34-.19s-.03-.02-.04-.03l.09-.03zm-3.93-.92s-.08-.1-.12-.16l.23.06zm-52.5 20.24-.2.17c.03-.1.08-.23.13-.38.03.07.04.13.07.21zm9.35 40.57.03.03 1.09 1.29c-.48-.29-.88-.71-1.24-1.09l.13-.23zm1.83 1.62c-.85-1.08-1.55-1.78-2.46-2.93l.32-.65.74.85c.17.2.5.42.76.56.14.69.41 1.37.87 2.21-.08-.01-.15-.03-.22-.05h-.01zm15.14 5.24c-.04.06-.16.08-.55-.15.17.06.36.1.55.15zm3.41 1.01c-.05.21-.11.3-.17.27l-.35-.12zm3.09.86-.3.02c-.19.01-.48-.08-.41-.32.17-.01.54.02.69.05.05.01.07.25.02.25zm5.82-.57c.24-.1.47-.12.66.1-.33.07-.54.12-.76.15l-.69.1c-.34.05-.69.07-1 .04.66-.19 1.24-.18 1.8-.4h-.01zm3.26-2.17c-.27.07-.53.12-.79.19-.17-.1-.32-.23-.45-.38.79-.16 1.56-.34 2.28-.54l1.02.13c-.67.22-1.34.43-2.05.61h-.01zm4.74-1.64c.1-.07.21-.18.29-.25.05.02.11.03.17.05-.15.07-.31.13-.46.2zm-.73-.08c.15.06.4.16.54.16-.22.09-.43.19-.65.27-.21-.06-.42-.13-.63-.21.05-.02.11-.04.16-.06l.47-.21zm-20.52-5.96.39-.33c.2.19.4.37.61.56-.27-.15-.59-.23-1.01-.22h.01zm-.84-1.19-2.11-.86c-1.61-.65-3.08-1.58-4.35-2.67.17-.58-.07-1.29-.53-1.45-.08.24-.11.3-.25.35-.02-1.08-.48-1.5-1-2.3.08.1.17.2.28.29-.19-.31-.38-.57-.6-.84.02.05.04.08.06.12-.11-.2-.22-.41-.32-.66 0-.12.01-.31.02-.49.78 1.24 1.71 2.33 2.68 3.44l2.21 2.43c-.64-.95-1.43-1.69-2.17-2.56-.86-1.01-1.7-1.98-2.44-3.11-.1-.16-.2-.31-.29-.47-.01-.08-.04-.15-.08-.2l-.11-.11c-.14-.22-.27-.44-.39-.67.15-.21.23-.5-.2-1.53-.03-.06-.05-.12-.07-.19l.11.15-.18-.34c-.19-.68-.07-1.18-.43-1.24-.04-.02-.09-.04-.12-.06-.02-.06-.05-.14-.07-.2.18-.34.14-.56-.04-.87-.32-.57-.31-1.31-.52-1.85-.37-.95-1.04-1.75-1.3-2.8l-.31-1.23-.1-3.69c-.02-.64.26-1.63-.04-2.1l-.18-.28c.05-.69.12-1.38.16-2.09-.17.62-.25 1.25-.29 1.89l-.31-.49.14-1.5.09-.27.32-.96.63-1.9.43-1.24c.18-.51.27-.88.37-1.55l.32.12c-.12.38-.32.69-.31 1.05.14-.08.31-.62.4-1.02l.21.08.25.1c.19.07-.21-.97.02-1.1l.61-.34.08-.58.09.09.13-.33s-.1.02-.12.04l-.09.11.03-.18c.03-.18.52-.23.67-.34l.2-1.14c-.2-.42-.26-.94-.01-1.33l.21.26c.07-.41.2-.77.36-1.1.11-.17.23-.35.35-.52.11-.16.23-.32.34-.49.09-.1.17-.2.27-.29l.61-.59.6-.6-.42.55-.84 1.1c-.37.48-1.13 1.7-1.41 2.3.65-.79 1.14-1.6 1.71-2.44.91-1.34 2.04-2.43 3.09-3.65-.02 0-.06.01-.1.04.2-.29.38-.61.57-.89.2-.13.39-.28.58-.43.01-.01.03-.02.04-.03.28-.14.54-.31.74-.51.12-.08.23-.15.36-.24l.83-.57c-.29.12-.62.3-.95.5.1-.18.17-.39.18-.63 1.91-.65 1.24-.79 2.99-1.38 2.28-.77 1.11-.84 2.75-1.33 0 .03-.01.05-.02.07l.26-.14c.39-.11.78-.22 1.17-.33l-2.75 1.25c-1.22.55-2.37 1.11-3.47 1.81.36-.08.64-.29.94-.43l1.3-.61c.76-.36 1.47-.8 2.26-1.11.8-.32 1.49-.77 2.42-.87-.41.25-.76.46-1.13.63l-1.01.47c-.58.27-1.38.56-1.72.8-.24.18-.66.23-.88.37-.3.19-.6.41-.88.52-.12.05-.34.22-.44.28-.43.14-.85.32-1.09.74l2.65-1.43.73-.35 1.26-.66 2.23-.92c1.92-.79 3.56-1.5 5.23-2.08l.23.03c.08.01.16.01.25.01-.77.23-1.53.52-2.29.83l-.94.38-1.25.51-.98.46-1.35.65.23.08-.32.3 2.25-.93c.89-.37 1.74-.81 2.65-1.14l1.3-.48-.36-.05.85-.3-.46.34 2.86-.76 1.3-.29c.6 0 1.15.11 1.8.3-.87.07-1.73.18-2.54.37-1.67.39-3.29.77-4.88 1.47l-3.94 1.72-2.89 1.33c-2.32 1.07-4.47 2.43-6.33 4.22-1.05 1-1.92 2.12-2.7 3.31-.78 1.18-1.59 2.28-2.24 3.55-.94 1.86-1.64 3.8-2.23 5.79-.54 1.86-.83 3.67-.81 5.6.02 2.82.31 5.57.97 8.31 1.09 4.55 3.38 7.83 6.48 11.21l2.8 3.06c.81.89 1.65 1.73 2.51 2.54-.3-.04-.77-.14-1.04-.66zm42.82-41c.29.59.52 1.13.11.5-.07-.1-.14-.22-.22-.35.04-.05.08-.1.11-.15zm.2-.38.24-.59.06.12.89 1.56c-.55-.18-.37-.75-.8-1.03l.25.6c0 .09.02.16 0 .14l.22.14s-.06.06-.09.04l-.12-.08.48 1.03c-.34-.55-.73-1.22-1.14-1.92zm1.92-13.38-.38-.16c.11-.1.24-.05.38.16zm-3.12-1.56.59.31.72.41c.28.25.46.38.81.55.32.15 1.04.65 1.24.69 0 .01-.02.02-.02.03-.09.2-.2.52-.07.6.16.1.49.22.64.18.07-.02.12-.12.15-.24h.05s.03.11.03.14c.03.02.06.05.09.07v.05c-.02.1-.11.43-.21.4l-.44-.13c-.12-.04-.38-.25-.45-.16l-.29.37-.31-.57c-.81.89-.15 1.12-.99 1.27-.13-.46-.16-.84-.05-1.21l-.15-.81c-.95-.12-1.1-.91-1.42-1.58l-.28-.59.37.22zm-1.19 3.15h.02s0 .09-.02.13c-.15-.11-.26-.25-.34-.41.1.1.24.23.34.28zm-1.27-1.04c.08.04.15.14.2.27zm-6.8-5.8-.24.11c-.06.03-.1-.1-.1-.23.09.03.18.05.27.09.02.01.05.02.07.03zm-3.86-1.08.27.18c.66.11 1.28.26 1.92.43.12.13.26.25.32.34.43.57.76 1.42 1.07 2.19-.02 0 .46-.27.49-.41l.31-1.32s0-.07-.02-.12c.63.22 1.4.42 2.03.57l-.07 1.29c-.02.42-.09.73-.41.89-.2-.37-.82-.62-1.24-.51-.21.08-.04.58.09.73-.39-.13-.78-.25-1.19-.34-.67-.14-1.27-.31-1.92-.49-.19-.11-.43-.28-.77-.58-2.05-1.81-1.02-1.92-2.15-3.07l.43.1c.28.07.56.11.85.12zm-1.3-.23-.65.6.68.36c.14.07.07.36 0 .55l.61.2c0 .58.02.85.17 1.42-.19-.04-.37-.09-.56-.13-.68-1.02-.67-1.8-1.54-2.14l.58-.76c0-.08-.06-.2-.12-.3.09.02.16.03.26.06l.56.13zm-4.19-.71 1.02.19s.04.03.07.04l.38.12c-.53.11-1.35.17-1.88-.05l-1.18-.48.74.03c.25.01.58.09.84.14zm-9.66 3.43c-.07 0-.13-.01-.2-.01-.12 0-.25.01-.37.02.35-.06.63-.08.57 0zm-23.6 7.98c.05-.23.59-.33.83-.47.43-.25.43-1.11.17-1.52v-.19l.33.11c.05.02.13-.13.18-.16l.88-.58 2.11-1.3c.99-.61 3.14-1.75 4.22-2.19l.82-.33s-.09.08-.14.1c-1.64.79-2.41.88-3.46 1.92l-.97.96-.52.51c-.95.94-1.18.78-1.53 1.55-2.99 1.49-1.54 1.93-3.14 2.63l.22-1.03zm-5.07-.67c0-.09-.02-.21-.01-.16 0 .02.17.02.18 0 .12-.23.34-.55.56-.84l.19.11c-.34.98-.17.47-.99 1.23-.03.03-.09-.01-.18-.07.08-.09.16-.18.25-.26zm-2.24 3.24c.11-.45.34-1.01.65-1.32.04-.04.05-.17.09-.18.32-.05-.03.14.41-.47.22-.31.46-.59.72-.87l-.39 1.26-1.16 1.21c.25.34.38.6.46.9l-.38.49c-.07-.12-.13-.25-.16-.41l-.49.66-.16-.85.42-.43zm-.5.49-.27 1.18c-.16-.07-.29-.16-.39-.26.48-.71.35-.96.66-.92zm-9.83 9.38.33-1.04.32-1c.22-.26.45-.59.68-.97l.46.2c.18.08 1.5-1.56 2.3-1.38.08.02.14.12.19.24-.43.59-.69 1.48-.68 1.9 0 .03-.14-.01-.15.02l-.24.99c-.04.18-.11.4-.17.61l-.18-.1c.02.16.05.3.08.45-.04.14-.07.27-.09.37-.01.06-.15.13-.16.19 0 .04.01.14 0 .18l-.06.27-.24.2c-.15.32-.4.85-.78.86-.36 0-1.68-1.29-1.5-2.1-.18.24-.24.33-.13.12h.02zm-.02 3.15-.18-1.3c-.01-.1.07-.36.16-.37l.54-.03-.26 1.25c.08 1.1-.13 2.03-.54 3.04l-.4 1c-.13-.27-.04-.55 0-.77-.27-.89.74-2.21.65-2.84zm.77 19.68c-.19 0-.76-.25-.71-.44l.21-.82c-.23-.48-.79-1.1-.79-1.63-.02-2.49-.44-.69.02-3.23.11-.59.22-1.13.25-1.71l.07-1.06.93-.1.16 1.64c.04.44.04.83.03 1.24v2.84c0 .93.69 3.2-.16 3.26zm1.26 2.35-.36-.69-.32.37c-.07.07-.27-.14-.32-.2l.75-.68-.43-.7.13-.18c.29-.38.96 1.48.55 2.08zm9.93 18.09-1.17-1.02c-.15-.13-.06-.72.06-.88.09.05.24.17.41.33l.66.83c.16.29.22.57.04.74zm1.03.86c-.26-.21-.42-.54-.52-.9l.5.62.69.83-.67-.56zm16.39 12.37c-.8-.33-1.37-.52-1.95-.72l-.07-.03.07-.23c.02-.07.36-.09.44-.06l1.26.48c.13.05.35.12.34.2l-.06.37h-.03zm-3.81-1.6-.12.09c-.07-.03-.14-.06-.22-.1l-1.37-.65-1.61-1.17c.12-.66 3.55 1.83 3.32 1.84zm-.52.21c-.09-.01-.17-.05-.25-.1.08.03.16.07.25.1zm23.8.76-.02.15s-.08-.08-.13-.12c.05-.01.09-.03.14-.04h.01zm-5.51 1.23.99-.19.99-.16c-.66.36-1.1.56-1.98.37-.09.08-.19.16-.22.19h.47c.08 0 .1.28.03.27-.66-.06-.65-.07-1.13-.22l-.16-.05c.34-.04.68-.15 1.02-.22h-.01zm-3.65.45c.68-.05.73-.29.84-.16l.1.12c.22-.06.37-.09.52-.11 0 .01.02.04.04.04l.57.31-1.17.02c-.35 0-1.04-.13-1.41-.19l.52-.05v.02zm-22.75-11.34c0 .11 0 .16.03.19.02.02.21.05.25.09l2.03 2.3s.31.02.31.06v.16l1.07 1.03c1.08 1.03 2.08 2.06 3.36 2.85.11.07.2.13.3.19-1.09-.63-1.96-.94-3.14-1.6l-1.65-.92c-.08-.05-.17-.1-.27-.16l-2.93-3.12-2.08-2.41-1.22-1.41-.61-.77c-.01-.17-.02-.34 0-.49l.88.66c.58.43 1.15.83 1.74 1.23.01.01.02.03.04.04l1.9 2.08zm2.66-.04-.2-.21c.67-.29 1.3.29 1.79.59l.28-.31c.1.1.2.21.3.31.19.19.37.37.56.54-.01.08-.04.15-.12.19-.92-.05-1.85-.5-2.61-1.12zm50.2-11.25.24-.05s.04 0 .05.01l-.14.2s-.13.04-.15 0c0-.04-.04-.14 0-.15zm-.49 2.28.43-.62c0 .29-.12.52-.43.62zm-.19.18s0 .17.04.16l.25-.08c.02.16-.05.41-.19.56l-1.18 1.23c-.35.36-.71.69-1.1 1.02l-3.04 2.55c-2.64 2.21-4.67 3.02-7.76 4.4l-4.71 2.1c-.67.3-1.26.69-1.93.96-.2.08-.39.14-.59.21l-1.29-.02-.34-.35c-.06-.06-.29.11-.38.16l-.5.25c.41.44.98.39 1.53.28-.87.25-1.75.46-2.66.68-3.27.79-6.55 1.43-9.91 1.33-1-.03-1.94-.22-2.89-.47l-.27-.38c-.06-.09.22-.39.17-.49-.25-.47-1.1-.2-2.66-.82-.08-.03-.29 0-.29-.07v-.37l-1.21-.35c-.47-.14-.82-.37-1.05-.74-.05.1-.16.34-.16.33-.37-.1-.73-.18-1.04-.21-.21-.02-.33-.5-.24-.67l.13-.24c.23-.43-.36.33-1.02.02-.2-.09-.28-.51-.31-.75l-1.12-1.15c-.26-.26-.7-.34-.68-.81 1.05.3 1.67 1.08 2.63 1.67-.54-1.14-1.68-1.6-2.59-2.37l-2.12-1.79-1.09-.94c.99-.1 1.11.36 2.17 1.18.79.61 2.2 1.79 2.88 2.44.1.1.23.24.29.19l.28-.26c.81.71 1.65 1.39 2.55 2.02 1.82 1.28 4.19 1.92 6.33 2.39 3.5.77 8.09-.03 11.56-.84 1.84-.43 3.5-1.02 5.23-1.79l4.28-1.88c2.97-1.31 5.39-2.39 8-4.35l3.61-2.7c.1-.07.18-.15.28-.23.07 0 .13-.02.15-.06l.05-.11c.6-.53 1.13-1.12 1.7-1.72l.08-.07.03.44c0 .08.25.05.31.05l-.2.46zm.19-1.81c0 .33-.26.38-.47.39zm-.44-2.1c.09-.25.27-.46.55-.55-.17.2-.31.34-.55.55zm8.44-17.55c-.26 1.01-.66 1.91-1.09 2.86l-1.14 2.52-1.37 3.08c-.35.79-.72 1.52-1.11 2.28-.63 1.23-1.19 2.46-2.08 3.57.09-.2.22-.4.35-.61v-.48c.13-.05.28-.09.3-.15l.08-.22s.05-.06.03-.06l-.21-.03c.22-.18.37-.46.46-.79.03-.11.2-.32.26-.43.24-.47.43-1.01.76-1.41.11-.13.41-.19.29-.39-.03-.05-.08-.08-.13-.11l1.22-2.59c-.09.06-.17.13-.2.2-.33.74-.66 1.47-1 2.2 0 .06-.02.12-.02.19-.02 0-.04 0-.06-.02-.52 1.12-1.06 2.22-1.67 3.31-.81 1.44-1.86 2.6-3.03 3.76-.19.19-.26.48-.28.72l-.56.54c-.11-.04-.28-.18-.36-.15l-.46.22c.21-.25.41-.48.66-.73l.13-.13c.99-1-1.46.84-1.35.75-.89.76-1.7 1.46-2.62 2.16-1.17.88-2.26 1.77-3.48 2.59-1.6 1.08-3.26 1.99-5.04 2.77l-.13.06-.22-.08c-.59.34-1.13.23-1.76-.05-.38-.17-1.04.3-1.44.34-.77.08-1.73.29-2.41.14l-1.09-.24c-.31-.07-.65-.09-.9-.16l-.33.09s-.03-.01-.05-.02c.16-.06.32-.14.51-.26-.19.05-.38.12-.58.21-.08-.09-.18-.22-.24-.21-.4.02-1.12-.02-1.64-.18l-.89.7c-.06.05-.17.13-.21.09l-.18-.19c-.06-.06-.22-.18-.28-.23-.06-.04-.26.16-.21.22l.25.33-.92-.09c-.21-.02-.47.46-.66.6-.46-.81-1.38-.84-2.13-.77-.73.07-.95.5-1.16.28l-.27-.28c-.44.04-.89.07-1.33.08l-1.07.03c-.36 0-.75-.29-1.1-.42-.68-.25-1.33-.44-2.04-.65-.37-.11-.96-.11-1.36-.26l-.1-.08c-.57-.45-1.09-.92-1.6-1.43.02-.03-.01-.05-.07-.06l-.77-.78-1.32-1.35-3.82-4.26c-1.82-2.02-3.47-4.2-4.55-6.72-1.63-3.77-2-6.37-2.24-10.39-.18-3.04.17-5.97 1.28-8.82.33-.84.56-1.65.96-2.46.66-1.35.45-1.44 1.48-2.97l.87-1.29.64-.95c.49-.72 1.42-2.09 2.05-2.7l.54-.51c.69-.66 1.42-1.2 2.2-1.77l.85-.62c.46-.34.95-.65 1.47-.91l1.55-.77c.66-.33 1.3-.68 1.98-.97l.74-.32 1.73-.79s.24.06.26.03l.11-.17 1.52-.69h.39l.16-.18s.2-.04.28-.08c.27-.13.64-.25.96-.36l1.08-.37c.4-.14.82-.26 1.21-.36.1.07.17.08.17 0l.57-.16c1.31-.38 2.63-.54 3.98-.62.55.18 1.16.47 1.64.08l.15-.12.39.03s.04.07.02.09l-.25.37.2.13 1.01.05c.48-.06.85.02 1.07.48l.7.03c.2.18.53.39.79.35.46-.08.62.31.88.43l2.17.95c.59.26 1.32.39 1.93.6.57.19.98.63 1.45.91 1.81 1.08 1.29.46 3.08 1.93.45.37 1.18.57 1.3 1.24.99.93 1.91.99 2.58 1.49 1.18.89 1.68 1.3 3.17 1.75.17.05.53.39.45.53l-.3.52c-.05.09 0 .36.11.43.33.24 1.12-.36 1.5.67.08.22.49.45.72.54l.06-.98c.02-.28.07-.19.2.08l.04 1.37h.38c-.2.5-.34 1.06.17 1.44.09-.1.07-.48.11-.62l.14-.47c.03-.1-.31-.25-.35-.35-.18-.45-.23-1.21-.34-1.74-.06-.31-.32-.68-.29-1 0-.09.07-.19.14-.29l.26.5 1.1 2.17v.16h.06l.45 1.25c.08.23.16.38.22.65.07.34.26.34.51 1.18l.3 1.05c.2.71 0 1.49.51 2.34.07.11.07.03.05-.1v-.18s.18.03.21.09c.08.19.06.53.07.76l.06 1.24c.05.97.08 1.91 0 2.9l-.13 1.68c-.13 1.69-.5 1.72-.56 2.02l-.16.9-.28.69s.02.17.02.19.04 0 .11-.03c.26-.58.52-1.14.66-1.74.25-1.02.51-2 .56-3.06.09-1.9.2-3.75-.05-5.65-.1-.81-.42-1.54-.36-2.32l.52 2.53.29-.1.02.14c-.09.07-.26.21-.2.24l.31.19.08 3.2c0 .18.03.47 0 .63l-.1 1.47c-.04.67.09.62-.05 1.39l-.2.16c-.05.04.06.23.05.3l-.14.8c-.02.12-.17.33-.23.41.18.33-.53.99-.14 1.5l.15-.09.07.07-.16.23c.13.13.37-.04.38-.19.02-.21.12-.29.25-.48.25-.36.4-.97.41-1.43 0-.26-.05-.5.24-.71l-.05-.54s.07.03.09.04c.03 0 .1-.05.1-.08l.03-.89c0 .44.36-2.34.39-2.28.02.51-.09 1.01-.09 1.52 0 .54-.03 1.08-.14 1.56 0 .03.09.16.11.14l.1-.18h.04c.03.06.07.14.06.16l-.1.33c-.02.07-.13 0-.23 0l-.05.17c-.05.15 0 .27.02.23 0 0 .08-.1.14-.18-.02-.16 0-.16.08 0-.05.8-.22.36-.17 1.09l-.35.7h.02c-.04.6-.34.85-.75 1.84-.39.94-1.01 2.24-1.45 3.14-.03.07-.17-.09-.2-.06-.04.04-.15.14-.13.13l.29.03c.05 0-.06.18-.09.22l-.3.35c-.2.23-.34.45-.43.77l.37-.2-.52 1.16c-.24.53-.48 1.04-.76 1.57-.04.08-.04.28 0 .3.14-.16.33-.39.44-.32l.29.16c.07.04.23-.17.26-.26l.41-1.08c-.11-.05-.34-.11-.39-.03-.05.09-.07.38-.09.48-.08.18-.29.44-.42.62-.24-.37.13-.55.21-.82.15-.49.4-.95.65-1.39.11-.18 0-.61.37-.55l-.15.4c-.03.09.21.31.25.3l.26-.26-.03.46c.15-.2.24-.39.47-.53 0-.12.06-.24.14-.42.14-.11.18-.26.23-.47.04-.16.28-.43.35-.58l.61-1.49h-.05l.32-.69.47-.43h-.13s-.12-.04-.1-.07l.09-.15c.18-.28.34-.52.54-.79l-.12-.2c.05-.11.1-.23.14-.34.05-.03.1-.07.12-.11.05-.09.07-.22.06-.33.36-.91.64-1.81.86-2.9.02.07.05.14.1.21l-.31 1.15.14.09-.2.76zm.8-6.5s-.07.02-.07.04v.11l-.1.22.05-.93c.02-.3-.03-.51-.04-.87l-.05-1.13c.09.12.15.27.12.37-.09.3-.09.69.03 1.02 0 .06.02.11.06.16.07.13.17.25.3.34l-.31.67zm.42-17.55-.16.57c-.05.16-.52.35-.69.29-.46-.16-.97-.85-1-1.28l.74-.7c.26-.25.94-.33 1.36-.43.08.6-.02 1.04-.25 1.56zm1.86 4.63.15.56c-.14.08-.51.17-.65.11-.17-.07-.47-.45-.41-.63.1-.33.44-.82.62-1.02.37.22.74.44.78.66.02.12-.52.2-.49.32zm.98.32h.47c.11-.02.03.28 0 .48-.02.17-.33.55-.5.49-.16-.05-.44-.31-.49-.47-.05-.17.34-.49.51-.5zm.67 3.98c-.57-.07-1.4-.8-1.04-1.47.54-.02 1.23.83 1.04 1.47z"/><path d="m160.42 724.23c.02-.08.04-.14 0 0z"/><path d="m176.85 743.93s.05-.02 0 0z"/><path d="m176.8 743.95s.03-.02.05-.02c0 0-.03.01-.05.02z"/><path d="m180.72 753.36-.48 3.32c-.05.32-.09.66-.17.96l-.36 1.38-.39 1.55-.31 1.19c-.07.28-.42.67-.47.9l-.25 1.18c-.09.41-.32 1.06-.51 1.36-.04.06-.38 0-.39-.08-.03-.39.7-2.06.26-2.99-.21.66-.3 1.23-.4 1.91-.09.58-.61 1.27-.64 1.89-.02.4.15 1.06.2 1.55.28-.44.37-.81.4-1.33l.89-.44.18-.69.77-2.2c.24-.69.79-1.14.65-2.02-.06-.36.06-1.13.29-1.46.95-1.36.36-1.57 1.13-3.53l-.21-.46c.05-.67.21-1.38-.2-2h.01z"/><path d="m98.43 780.52c-.3-.49-.74-.79-.81-1.48l-.86-.94c-.51-.55.05-1.38-.69-2.52-.77-1.2.19-.99-.44-1.64-.08-.08-.34.16-.39.31-.36 1.02.99 1.85.82 2.79-.07.34-.09.54.12.83.04.06.82 1.69 1.09 2.15l.62 1.03.5.83c.09.11.65 0 .77-.12l-.74-1.23h.01z"/><path d="m91.25 745.7c-.15 0-.53 0-.64.14-.09.11-.1.44-.16.56l-1.3 3-.86 2.06c-.33.79-.47 1.54-.66 2.39-.11.51-.37 1.04-.37 1.65l-.02 1.76c0 .66-.04 1.4-.13 2.07-.37 2.55.31 1.91.22 4.76-.02.81 0 1.47.29 2.29.59-1.4.02-2.84-.04-3.33-.11-.91-.37-2.04-.3-2.91l.21-2.7c.16-2.02.14-3.15.86-4.93-.04-.08-.24-.28-.21-.34l.14-.27.55-1.04.52-.96c.15-.28.29-.82.51-1.17.74-1.17 1.63-2.26 1.65-3.71l-.27.69h.01z"/><path d="m103.55 787.79.11-.44c.02-.09-.27-.13-.42-.2-.35-.15-1.01-1.13-1.34-1.66-.33-.55-1-1.08-1.46-1.61-1.11-1.29-.8-1.82-1.24-1.67-.52.17-.45.08.36 1.18l.69.93 1.35 1.69 1.41 1.66c.09.11.5.25.53.13z"/><path d="m92.3 767.63c-.21-.91.19-1.05-.64-1.56-.08-.05.3-.26.38-.34l-.16-1.58-.37.13c.67-1.26-.26-2.37-.13-3.87-.42.66-.36 1.04-.33 1.58l.1 1.79.09 1.61c.61.54-.01 1.04.36 1.25.68.39 0 1.24.5 1.76l.81.83c0-.76-.47-1.07-.6-1.62v.02z"/><path d="m175.58 772.08c1.52-2.41 1.88-2.11 2.4-5.71.07-.24.11-.47-.14-.2l-.29 1.38-.82 2.05c-.3.75-.8 1.46-1.25 2.07l-1.22 1.68c.93-.23.98-.75 1.31-1.26h.01z"/><path d="m176.71 746.17s-.26 0-.3-.06l-.49-.71-.81.45.99.79.24 1.44.03.25s.12.09.15.05l.13-.19.29-.4c.05-.07-.18-.31-.17-.4l.05-.35s.08.05.12.06l.25.09-.15-1.44-.32.42z"/><path d="m95.14 777.5-.24.13-.26-1.18c-.02-.08-.23-.24-.28-.31s.25-.32.19-.38l-.44-.46c.06-.27.05-.5 0-.78l-.21-1.04-.29-1.28c-.64 1.6 1.14 6.22 2.09 7.7l.23-.7-.65-1.49c-.04-.09-.09-.23-.14-.2z"/><path d="m129.35 795.32-1.02-.14c-.33-.05-.67-.65-1 .07.64.14 1.47.4 2.08.39l1.56-.03c.55 0 1.03 0 1.58-.09l-1.87-.28z"/><path d="m103.12 788.64-.91-.88-.51-.54c-.11-.06-.09.5.03.61l1.65 1.45c.41.36.83.65 1.31.95-.25-.93-1.05-1.08-1.58-1.59z"/><path d="m113.49 722.17c-.04.39 2.91-.93 2.8-1.28-.45.07-.78.17-1.19.36-1.43.67-1.56.41-1.61.92z"/><path d="m106.72 791.49-.62-.61-1.15-.8c-.17.68.59.66.94.96l.78.67c.21.18 2.99 2.15 3.11 1.58-.62-.4-1.22-.68-1.72-1.05-.45-.32-.77-.59-1.35-.76h.01z"/><path d="m176.42 761.22-.69 1.55c.51-.41.76-1.01.99-1.65l.43-1.19c.19-.53.27-1.21.29-1.74l-.55 1.61c-.16.48-.28.99-.47 1.43z"/><path d="m92.64 769.74c-.24.42-.1.87.19 1.22-.02.43.13.96.76.9-.25-.84-.5-1.48-.95-2.12z"/><path d="m97.43 781.59-.47.07.27-.53c-.54-.49-.84-1.03-1.02-1.79-.54.74.08 1.36.4 1.88l1.11 1.87c.08.13.23.3.33.36.1.07.41-.13.39-.24-.13-.7-1.24-.5-1.01-1.63z"/><path d="m142.15 715.98c.94.58.84.39 2.13.94.13.05.2-.48.07-.54-.11-.05-.26-.07-.45-.1-.61-.2-1.14-.4-1.75-.3z"/><path d="m154.24 720.15 1.89.67c.07.03.4-.08.48-.11.07-.02-.1-.19-.18-.18l-.27.02c-1.51-.83-1.24-.2-2.31-.89 0 .1-.03.34.06.37z"/><path d="m178.19 754.8.32-.91c.21-.58.29-1.18-.28-1.75-.04.36.06.92.17 1.24-.21.35-.44 1.01-.21 1.42z"/><path d="m170.64 784.76c-.21-.08-.73.29-1.23.74.15-.41.2-.79.52-1.15-.28.16-.57.42-.63.79l-.28-.04-.07.65-.15-.09s-.14.04-.13.08l.02.16c.02.13 0 .24-.03.35-.11.12-.2.24-.27.34-.05.02-.1.05-.16.06l.29-.38-.32.19.19-.32c-.13.07-.28.29-.37.42-.23.08-.48.25-.54.53l.43-.31v.26c0 .06.2.16.25.15l.56-.67c.17-.11.34-.22.44-.33l1.47-1.44h.01z"/><path d="m127.84 796.5-.09.48 1.71.63.34.13c.07.03.13-.33.06-.35l-.22-.07c-.67-.21-1.27-.46-1.8-.81z"/><path d="m175 749.58-.32-2.62-.29.77c.38.55.52 1.34-.09 1.86h.7z"/><path d="m120.97 717.45c-.09.08-.05.48.04.6l1.29-.59c-.46-.35-1.1-.21-1.32-.01z"/><path d="m124.96 721.7c.06.03.33.09.41.06l1.05-.44c.11-.05.03-.49-.01-.46l-1.22.57c-.1.05-.3.24-.22.27z"/><path d="m143.12 753.51c-.15-.46-.46-1.2-.82-1.41l-1.36-.83c-1.57.15-4.11-.64-5.48-1.44-1.57-.92-3.75.98-5.02 2.1-1.45 1.27-2.01 3.27-1.93 5.19.18 4.37.94 6.73 4.5 9.02 1.16.75 2.36.73 3.66.52 2.19-.36 2.83-1.1 4.43-2.55 1.45-1.31 4.07-3.69 4.18-5.85.03-.72-.32-1.9-.75-2.51-.52-.75-1.1-1.29-1.4-2.22v-.02z"/><path d="m118.42 779.68c-.17-.27-.28-.41-.43-.56.09.26.24.43.43.56z"/><path d="m118.86 736.87c.19-.07.35-.15.46-.26-.19.07-.35.15-.46.26z"/><path d="m120.11 735.94-.5.36c.26.07.42-.09.5-.36z"/><path d="m119.71 736.6c-.22.08-.4.17-.54.3.22-.08.4-.17.54-.3z"/><path d="m115.84 777.46-.35-.4c.05.22.18.34.35.4z"/><path d="m123.8 733.98.52-.25c-.21-.04-.47-.07-.52.25z"/><path d="m125.41 733.27-.18-.11c0 .1-.01.32-.07.3l-.23-.1s-.13-.03-.17-.04c-.04 0-.06.09-.02.11l.15.1-1.1.66 2.27-1.09c-.21-.1-.46.28-.63.18h-.02z"/><path d="m125.86 732.98.47-.26c-.22-.03-.4.05-.47.26z"/><path d="m123.3 734-.22.33-.18.31.86-.39c-.21-.2-.4-.33-.46-.25z"/><path d="m113.41 743.5.06-.17s.02-.15-.02-.13l-.17.11s.12.23.13.2z"/><path d="m122.33 734.75c.17-.08.34-.14.5-.3l-.9.32.4.19z"/><path d="m118.59 737.45.49-.4c-.23.02-.48.15-.49.4z"/><path d="m109.07 752.53c.24-.18.28-.37.17-.58z"/><path d="m109.78 750.09c-.29.59-.46 1.15-.51 1.76.25-.6.42-1.17.51-1.76z"/><path d="m119.61 735.91.71-.5c-.33.06-.64.22-.91.43l-.65.5c-.54.42-1.13.52-.97.85l1.81-1.29h.01z"/><path d="m109.97 749.62c.19-.3.27-.57.26-.85-.19.3-.27.57-.26.85z"/><path d="m115.7 777.98h-.22s.05.13.07.18.15-.04.21-.07c.05-.02-.07-.14-.07-.11z"/><path d="m108.91 753.36c.19-.16.24-.32.12-.52z"/><path d="m109.21 759.13c.04-.16 0-.3-.08-.34-.04.16 0 .3.08.34z"/><path d="m114.62 776.18c-.07-.19-.15-.34-.26-.46.07.19.15.34.26.46z"/><path d="m113.71 742.9.45-.63c-.26.09-.5.31-.45.63z"/><path d="m115.29 740.45-.22.35.34.05s.06-.68-.12-.4z"/><path d="m117.32 738.24.26-.09s-.02.03-.07.09l-.09.12c.1 0 .42-.18.42-.28v-.41l-.49.32s-.07.16-.07.19.01.06.04.05z"/><path d="m115.78 740.32.26-.31-.32.12.69-.93c.11-.15.3-.17.49-.21.17-.05.4-.35.48-.57l-.44.29.32-.42c-.37 0-.44.22-.58.43-.24.37-.57.69-.86 1.03l-.4.48c.08.04.3.16.36.09z"/><path d="m114.68 741.54.11-.18.04-.2-.39.35c.14.03.22.06.25.02h-.01z"/><path d="m114.53 741.68c-.29.04-.4.22-.26.39z"/><path d="m167.72 750.61c-.16.18-.11.37.04.5z"/><path d="m165.45 768.03s-.15.09-.17.11c-.03.03.11.24.13.2l.06-.17s0-.15-.02-.13z"/><path d="m165.19 770.61c.19-.1.33-.32.35-.44 0-.04-.07-.2-.1-.17l-.12.11z"/><path d="m141.46 784.21c-.28.1-.5.22-.69.38.28-.1.5-.22.69-.38z"/><path d="m142.41 783.79c-.33.12-.6.27-.85.46.33-.12.6-.27.85-.46z"/><path d="m165.99 766.96c-.16.16-.23.29-.26.49.16-.1.25-.29.26-.49z"/><path d="m167.73 763.07.29-.52c-.24.11-.34.34-.29.52z"/><path d="m167.38 763.58c0 .19.03.17.13.04l.06-.22c.02-.08-.38.12-.19.19z"/><path d="m132.93 731.54c.28-.08.54-.17.83-.32-.3.02-.57.11-.83.32z"/><path d="m134.77 730.91c-.24.06-.4.12-.59.2.24.05.47-.01.59-.2z"/><path d="m130.73 732.36.61-.22c-.29-.12-.46.05-.61.22z"/><path d="m129.92 732.63c-.28-.08-.58.02-.77.18.25 0 .26 0 .23.01-.03.02-.18.11-.22.12l-1.1.49-.07-.09s-.04-.02-.05 0c0 .02-.04.13-.05.14l-.16.09s0 .05.03.06h.18l.77-.33c.39-.17.83-.43 1.22-.67z"/><path d="m130.08 732.61c.22-.08.4-.17.54-.3-.22.08-.4.17-.54.3z"/><path d="m167.28 761.84.13-.35-.22.13c-.06.03.07.27.09.21z"/><path d="m163.87 771.21c.24-.11.34-.3.29-.54z"/><path d="m165.07 769.68c-.21.13-.37.39-.36.7.13-.2.2-.34.36-.7z"/><path d="m164.6 768.95c.44-.8-.36.09.6-.94.03-.03-.1-.18-.07-.21l.14-.12c-.03-.59 1.02-1.89.96-1.96l-.13-.16c.27-.12.36-.27.45-.52l.36-1c.09-.25.4-.57.33-.9.11-.1.26-.28.34-.39l-.3-.02c.36-.19.63-.42.46-.8l.4-.57s-.14-.09-.12-.14l.14-.33c-.28.09-.59.14-.81.39l.47-.19-.18.69c-.06.24-.37.48-.3.76-.1 0-.17.04-.19 0l-.12-.19c-.05-.08-.2.12-.33.31h.44c-.1.27-.36.39-.68.43l.11.45.26-.36s.1.03.14.04l-.52.96-.33.12.04-.3-.26.46.3-.07s.06.08.08.19c-.76-.17-.5.5-.92.87-.08.07-.18.15-.15.2l.1.15-.49.42.3.27c.13-.35.26-.48.61-.56-.03.12-.11.26-.2.41l-.26.4c-.05-.16-.16-.27-.23-.23-.1.05-.2.23-.2.31s.18.14.41.18c-.27.78-.84 1.93-1.43 2.46l.35-.05c-.07.23-.66 1.19-.68 1.19l-.32-.03.27.24c-.22.43-.44.86-.6 1.29.75-1.03 1.18-2.1 1.76-3.15z"/><path d="m164.8 766.94-.34.43s.04.09.05.11l.38-.27-.1-.27z"/><path d="m165.52 769.98.37-.41c-.05.65-.91 2.05-1.25 2.58-.02.03 0 .15 0 .13.02-.02.16-.11.17-.14l1.36-2.64-.56.07c-.05.02-.12.27-.11.41z"/><path d="m166.81 766.79c-.06.05.02.29.09.28.17-.04.25-.31.12-.45l-.22.18h.01z"/><path d="m135.38 730.79-.52.14c.2.15.4.03.52-.14z"/><path d="m158.33 774.52c.1-.03.26-.09.36-.14.06-.03.05-.16.03-.34l-.4.48z"/><path d="m166.41 761.19c-.09.45-.42.81-.41 1.26.4-.64.63-1.24.91-1.93-.32.09-.43.35-.49.66z"/><path d="m160.21 776.15.38-.08c-.18-.18-.33-.05-.38.08z"/><path d="m165.56 763.54.4-.98c-.26.34-.53.71-.69 1.08l-.72 1.69c-.24.57-.27.46-.62 1.28-.38.89-.78 1.75-1.23 2.61l-.29.56c-.73 1.42-1.3 2.17-2.42 3.35-.8.84-.77.65-1.23 1.64-.02.1.28.07.38.02.08-.04 0-.29.05-.37.27-.52 1.89-2 2.6-3.11.77-1.21 1.35-2.46 1.94-3.76l1.83-4.02z"/><path d="m164.32 770.94c.27-.03.42-.32.18-.45z"/><path d="m167.96 766.08-.13.27c.05-.04.11-.07.16-.1-.02-.06-.03-.12-.03-.17z"/><path d="m169.11 759.8.26-.16-.08-.39z"/><path d="m166.42 768.89s.08.02.13.03c.03-.06.05-.12.08-.18.11-.63.62-1.04.64-1.72-.37.55-.64 1.2-.85 1.86z"/><path d="m135.99 730.65-.52.14c.2.15.4.03.52-.14z"/><path d="m167.97 766.05s0 0 0 0z"/><path d="m169.37 759.67.02-.04-.02.01z"/><path d="m167.77 752.76c.06-.33.05-.59-.02-.89-.12.3-.12.59.02.89z"/><path d="m138.59 730.33s-.06-.16-.1-.15l-.45.09.37.09s.15-.02.19-.03z"/><path d="m137.95 730.3c-.5.02-.89.07-1.34.27l.67-.08c.24-.03.45-.06.66-.19z"/><path d="m166.38 785.45-.06-.24s-.17.05-.19.08c-.57 1.03-.84.84-1.04 1.32l-.24.58c.54-.13 1-.45 1.39-.89l.69-.76 1.19-1.31c.13-.14.29-.21.28-.41l-.45.27c.18-.81.97-.11.95-1.22.06.08.16.24.19.2.58-.8.33-.22.47-1.04l.05.24c.05.23.89-1.08.91-1.31-.42.22-.49.76-.86 1.06l.66-1.18c.06-.11 1-1.57.48-1.64-.09.25.07.66-.4.67l.31-.8c0-.3.06-.52.14-.84l-.28.58c-.22.46-.41.87-.57 1.32l.24-.13s.13.02.13.06l-.05.21c-.06.26-.11.44-.34.61l-.07-.46c-.11.1-.29.3-.32.42-.03.1.14.31.18.42.02.04-.09.15-.13.19-.08.09-.09-.38-.18-.29-.44.43-.29.65-.79 1.2-.19.21-.44.49-.45.77 0 .06-.12.29-.16.27l-.23-.13c-.25.27-.46.53-.67.83l-.28.39c-.06.08.1.23.15.33-.29.01-.57.07-.71.22.12.1.24.19.2.23s-.16.16-.15.15v.03z"/><path d="m123.94 720.73c-.1.17-.07.12.01-.06l-2 .83c-.32.13-.58.24-.77.53l-.05-.19s-.15.03-.2.05c-2.07.8-2.91 1.18-4.87 2.27-.32.17-.65.35-.88.57.19.16.38.21.42.06-.12-.25 0-.14.15-.02.36-.21.7-.39 1.07-.61l.72-.43c.82-.48.85-.19 1.25-.46l.71-.48c.45-.3.65-.16 1.01-.36.44-.25.89-.38 1.39-.44l.15-.29c.29 0 .59-.48.58-.2v.14l.57-.4c.07-.05.29-.08.39-.13.32-.17.83-.31 1.12-.32.05 0 .21-.2.25-.16l.13.15.19-.31c.04-.06.25.02.38.05.14-.24.62-.55.89-.65.05-.02 0-.15-.04-.13-.03.02-.15.11-.19.13l-1.14.39-1.23.46h-.01z"/><path d="m138.98 715.6c.17.04.39.03.5.08l.42-.14.14.16s.77-.15 1.22-.1l1.29.14-.03.15.44-.12c-.04.1-.1.21-.06.21h.18l.36-.13v.14s0 .07 0 .05c.03 0 .15-.09.17-.09l.84.03c-.28.05.95.21 1.21.2l-.17.15c.39-.06.57-.07.88.04.25.09.54.08.79.12l.79.12c.25.04.56.14.84.2l.71.03h.65l.12.23c.05.09.43-.11.48-.05l.11.16.71-.19h-.41c-.29-.69-.74.17-1.12-.39l-1.24-.1c-.13 0-.35-.15-.48-.19-.11-.04-.4.07-.48 0-.06-.06-.15-.21-.21-.19l-.27.09c-.26-.15-.61-.31-.94-.34l-1.37-.13-2.65-.29c-.65-.07-1.26-.09-1.91-.07l-1.14.03c-.13 0-.3.08-.37.21z"/><path d="m116.03 722.47.21.09c.05.02.22-.13.28-.15l.77-.32-.08-.27c.18.04.29.06.44.03.1-.02.21-.17.3-.29.06 0 .21.05.25.01l.2-.18c-.07.08 1.37-.57 1.23-.69-.17-.19-1.8.52-1.88.68l-.09.19s-.04-.07-.03-.1v-.12l-.96.52-.68.33-2.9 1.56c-.18.1-.32.29-.46.47 0 0-.05-.09-.08-.12-.02-.03-.16.05-.18.07l-.4.36c-.18-.01-.45.14-.45.29 0 .08.27.17.33.11l.17-.21c.64-.43 1.11-.6 1.6-.9l1.23-.75.57-.06c.15-.3.35-.43.63-.57 0 0-.02.02-.02.02z"/><path d="m175.63 777.39c-.18.06-.18.41-.08.59-.05 0-.15-.04-.18 0l-.1.15c-.06.09-.22-.16-.19-.02 0 .03.04.22.02.24l-.95 1.41c-.23.35-.35.81-.28.85l.21.09-.17.36c.33-.16 1.21-1.66 1.23-1.74l.14-.72c.03-.18.2-.27.3-.33.09-.22.2-.45.44-.63-.03-.08-.29-.29-.39-.26zm-1.04 2.41c-.12-.21.17-.32.33-.31z"/><path d="m114.79 725.31.16-.19.2-.02-.15-.36-1.23.72-1.11.67c-.67.4-1.27.83-1.85 1.43.39.07.69-.13.87-.42l.37-.06c.14-.24.31-.48.46-.55.33.09.64-.16.72-.47l.57-.25c-.07-.29-.01-.28.1-.12.08 0 .18.02.15.02s-.08-.17-.05-.19c.16-.13.71-.1.79-.2z"/><path d="m156.03 718.21-.94.12c.53.33.89-.03 1.5.42.06.04.17.18.22.17l.15-.04c.18.33 1.27.5 1.33.26l-1.23-.55s-.22.01-.26.02c-.02 0 .03-.1.05-.16z"/><path d="m150.02 718.2c-.29-.03-.48-.04-.7-.1l-.37-.09c-.44-.11-.84-.17-1.3-.2-.51-.03-1.01-.19-1.6-.29-.13.22 2.23.61 2.47.65l.73.12c.27.05.55.15.77-.11z"/><path d="m147.83 714.78.19.18 1.05.1.16-.1c.06-.04.7.68 1.01.34.05-.06-.09-.25-.17-.27l-.76-.25c-.4-.13-.74.33-.71.05l.02-.19-.52.17c-.25-.35-.77-.45-1.08-.07l.49.15c.07.02.27-.15.32-.1z"/><path d="m158.61 719.21-.59.39.93.1c.22.02.54.21.77.18l-.27.22.61-.07.39-.04c.78-.08-.67-.31-.8-.36l-.62-.24c-.11-.04-.32-.25-.42-.18z"/><path d="m161.86 722.17c-.35-.23-.68-.4-1.01-.54l-.59-.61.18-.42c.03-.06-.23-.06-.26 0l-.14.24c-.05.09-.08.26-.06.43l-.73-.29-.55-.23s-.19.01-.24.04c-.04.02.03.14.07.15l.15.05 1.03.39c.09.04.19.06.31.08.03.06.07.11.13.14.03.01.06.01.09.02l-.17.29c.96-.62.85.37 1.79.24z"/><path d="m180.63 767.27.09.66c-.02.21-.29.58-.42.8l-.96 1.62c-.24.4-.52.78-.43 1.28.21-.46.4-.85.63-1.27l.35-.66.79-1.36c.19-.33.41-.74-.05-1.06z"/><path d="m162.86 722.71.38.53.59.03.1.46.61-.09s.08-.21.04-.19c-.34.17-.17-.28-1.27-.66-.2-.07-.38-.14-.45-.08z"/><path d="m143.95 714.28c.73.07 1.4.17 2.12.39.14.04.35.02.51 0l.31-.03c.05 0 .03-.25.02-.15-.28.02-.32 0-.52-.08-.55-.2-1.15-.19-1.73-.26l-1.58-.18c-.22-.03-.48.06-.61.17.81-.12.73.05 1.48.13z"/><path d="m152.99 717.71 1.1.13c0 .07.03.21.03.21l.66-.2c-.78-.47-.84 0-1.48-.44-.17-.12-.52-.1-.69.14l.55-.03-.17.2z"/><path d="m178.36 735.68s0 .19.02.22l.47.95c.04.36 0 .75.45.74-.15-.4-.24-.7-.34-1.08l-.4-.88s-.2 0-.2.05z"/><path d="m161.21 720.11s-.09.12-.12.14l-.48.2c1.31.41.16.32 1.27.26l.31-.02c-.12-.36-.54-.38-.87-.34l.06-.2s-.14-.07-.16-.04z"/><path d="m111.33 723.08 1.34-.77.53-.69c-.74.3-1.21.92-1.51.96-.1.11-.26.34-.37.51h.01z"/><path d="m127.79 717.61-.09.54.52-.66c.06-.01.15.14.27.34-.04.24.2-.49.29-.64l-.2.05c-.22.05-.6.26-.79.37z"/><path d="m128.76 717.65.62-.6-.55.13s0 .18-.06.47z"/><path d="m128.79 717.19h.03s-.02-.03-.03 0z"/><path d="m170.45 783.34c-.23.35-.37.61-.49.9l.5-.45c-.15.3-.27.56-.36.92.16.18.63-.56.51-.56h-.18c.09-.15.21-.33.24-.44.02-.09-.12-.27-.21-.36z"/><path d="m167.73 788.37c-.05 0-.22 0-.19.08l.12.24s-.07.06-.1.08l-.53.27c0 .07.02.29-.04.28h-.25c.19-.3.4-.49.76-.7-.03-.03-.13-.08-.16-.06l-.15.11c-.32.23-.65.45-.98.63l.05.19s-.08.07-.17.13c.07.03.29.1.4.13.09.02.22-.2.3-.24l.15-.07c-.04.06-.08.1-.12.17l.28-.24.45-.21s.07-.13.08-.25l.09-.08v.03l.6-.3c-.03-.33-.02-.47.02-.7-.29.2-.5.33-.62.52z"/><path d="m162.11 720.96s.08.12.1.13l.63.21c.13-.08.27-.2.34-.15l.25.2s.19.1.21.06c.03-.05.06-.18.02-.2l-.2-.09-.38-.16c-.26-.11-.49-.1-.78.01l-.12-.1s-.09.07-.08.1z"/><path d="m173.5 783.42c-.2.18-.56.52-.75.74.26.04.32-.11.5-.29 0-.02.06.11.02.14l-.14.12c-.05.04-.21.2-.18.26s.16.11.3.17c0-.27.1-.45.28-.69l.47-.66c-.17-.05-.24-.07-.32-.09-.06-.01-.13.26-.18.3z"/><path d="m171.19 730.4s.06-.1.02-.11l-.19-.06-.48-.14c-.19.16.97 1.15 1.08.88.07-.06-.02-.33-.11-.34l-.33-.04-.17-.02s-.04-.12 0-.12l.19-.04h-.01z"/><path d="m130.84 717.15.17-.09c.2-.1.37-.39.33-.53-.63.28-.33-.16-1.12.3.22.18.35.14.6.09l-.1.17s.1.08.12.06z"/><path d="m177.73 734.57c.35.26.53.94.7.82.08-.06.22-.15.23-.15-.51.01-.22-.67-.71-.86-.05-.02-.27.18-.22.18z"/><path d="m170.8 728.04c-.26.06.88 1.22.95.73-.3-.44-.57-.58-.95-.73z"/><path d="m151 718.88.27-.02c1.11-.1.83.31 1.59.27.06 0 .17-.19.12-.19h-.19c-.27 0-.52-.12-.75-.18-.45-.11-.86-.19-1.32-.34-.14-.04-.28-.02-.44.11l.75.12c-.03.1-.09.24-.03.24z"/><path d="m171.3 724.7 1.17.93c.21-.34-.03-.43-.3-.58l-.65-.36s-.19.05-.2.02c0-.04-.02-.1 0-.13l.16-.14-.27-.02c-.06 0-.06-.14-.11-.31l-.3.35c.23.01.3.1.49.25z"/><path d="m182.12 762.13.11.34s-.2.13-.18.21l.11.69c.13-.56.19-.99.24-1.58-.15.07-.3.25-.27.34z"/><path d="m126.22 718.69c.34-.21.5-.33.75-.63h-.57c-.11 0-.15.32-.13.37l-.32-.16z"/><path d="m111.14 725.08-.69.71s.1.29.08.22c.14-.45.59-.33.53-.51l-.05-.13c.05.01.23.08.25.02l.09-.27s.03-.16-.01-.17h-.11s-.06.11-.08.13z"/><path d="m167.93 768.25-.62 1.32.32-.02c.08 0 .32-.36.03-.35.07-.29.24-.51.53-.79l-.25-.16z"/><path d="m175.5 728.91c.12 0 .33-.01.32 0l-.22.11s.03.13.06.17c.02.03.21.04.22 0l.06-.38-.54-.55c-.28.23-.11.66.1.65z"/><path d="m105.96 728.12-.5.5c-.29.29-.55.66-.74.99l1.01-1.07c.09-.09.18-.26.23-.42z"/><path d="m183.8 760.65c-.25.35-.29.76-.26 1.15.08.05.35-.12.33-.2l-.06-.31v-.65h-.01z"/><path d="m169.84 725.14v-.21l-.49-.02s-.16.02-.19.03c-.03 0 .03.07.06.08l.13.07c.06.03.15.22.22.2l.26-.11-.08.19h.32s.04.03.02.04l-.23.15c.2.08.5.1.71-.04-.13-.23-.39-.43-.73-.38z"/><path d="m103.43 731.42.23-.42c.16-.3.34-.62.62-.85l.18-.15s-.06-.09-.06-.08c-.59.66-.5.03-.86.97-.14.37-.59.59-.67 1.02.22-.11.46-.31.56-.48z"/><path d="m109.88 728.56c.36-.28.57-.58.98-.55l-.08-.29c-.06-.23-.94.66-.9.85z"/><path d="m114.62 721.28 1.51-.76c-.22-.05-1.68.52-1.51.76z"/><path d="m158 717.73.23-.03c.14.1.27.21.37.23s.31-.14.4-.23l-1.24-.21c.08.19.14.26.25.24z"/><path d="m169.92 727.28c.1.4.42.62.78.62-.18-.36-.47-.51-.78-.62z"/><path d="m174.15 782.57s.2.2.23.15l.16-.22c.09-.12.1-.38.02-.53l-.4.6z"/><path d="m175.06 729.86s.04-.04.07-.06l-.58-.18c-.08-.04-.14-.08-.15-.05 0 .03-.02.13-.03.13 0 0 .1.04.14.05l.17.06s-.04.19-.02.22l.58.69s.14.16.16.12c0-.02.04-.1.05-.13l.23-.37-.4.29-.55-.77c.15.01.28.04.32 0z"/><path d="m175.13 729.8c.06-.05.04-.03 0 0z"/><path d="m182.17 764.07-.29-.6c-.17.46-.24.82-.31 1.23l.2.04s.1 0 .09-.02l-.07-.18c-.03-.09-.1-.36 0-.38l.39-.08z"/><path d="m120.13 720.44-.11-.11-.38.21c-.06.04.04.23.11.31.17-.16.35-.25.6-.35l-.21-.07h-.01z"/><path d="m177.66 734.29c.06.02.34-.11.29-.16l-.22-.23s0-.2-.05-.21l-.27-.08.25.69z"/><path d="m166.21 724.45-.51-.17c.32.34.66.54 1.09.7.02-.05.05-.13.05-.16-.38-.05-.49-.16-.64-.37z"/><path d="m166.84 724.82s0-.01 0 0z"/><path d="m161.59 722.53c.37-.05.67-.05 1.09-.03-.32-.33-.83-.38-1.09.03z"/><path d="m174.64 781.81s.23.2.28.11c.13-.21.22-.56.12-.69z"/><path d="m184.28 757.66c-.22.35-.29.7-.2 1.09l.16-.51c.07-.21.13-.39.04-.58z"/><path d="m178.24 771.68c-.27.28-.45.58-.44 1.03.09-.14.16-.3.23-.48z"/><path d="m167.41 725.33.07.32.64-.03c-.3-.24-.45-.27-.71-.29z"/><path d="m172.76 782.41c.34-.12.59-.37.74-.82-.25.2-.5.48-.74.82z"/><path d="m160.16 718.68.25-.03c.13-.01-.07.12-.04.16l.5-.18c-.22-.16-.48-.21-.73-.14-.02.14-.02.29.02.19z"/><path d="m171.1 777.97.65-.77-.1-.21z"/><path d="m156.55 717.14c.2.19.46.31.72.27-.17-.3-.43-.34-.72-.27z"/><path d="m117.06 720c.05.05.31.02.38 0l.87-.34-.34.78 2.51-.43.99-.17s-.04.06-.08.18c-.16-.03-.3-.04-.46-.03l.15.07s.03 0 .02.03l-.13.24c.19-.02.42-.09.62-.19l.74-.38v.25c0 .07.93-.35 1.37-.52.58.04 1.31-.07 1.79-.4.09-.06.16-.25.19-.47l.22-.37-.19.08c.02-.36-.05-.71-.21-.68-.59.1-.89.52-.96.29l-.12-.41c-.85 1.34-1.07.03-2.75.97-.62.35-1.36.4-2.08.49.2-.12.42-.25.61-.39-.37 0-.5.18-.75.33-.14 0-.2.02-.11.09-.09.01-.18.03-.27.04.03-.06.06-.12.08-.2l-.59.31c-.41.12-.78.29-1.25.36-.11.02-.37.13-.35.23l.06.23c-.37.09-.62.29-.86.54.33-.14.6-.28.88-.51z"/><path d="m163.98 719.82c-.28-.02-.52-.01-.75.03.25.27.53.22.75-.03z"/><path d="m174.04 751.75c.17-.29.24-.57.1-.9-.07.28-.09.59-.1.9z"/><path d="m178.07 772.79c-.06.05-.19.21-.14.25.08.08.22.22.24.17l.08-.25c.03-.09-.12-.21-.17-.17z"/><path d="m127.32 718.2s.07-.16.05-.21c-.06-.09-.17-.23-.21-.18l-.14.16c.12.05.23.07.2.11l-.17.22.28-.1z"/><path d="m182.45 761.21s-.11.05-.22.06c0 .16.09.44.25.48l.06-1.07-.26.25c.09.05.19.19.17.27z"/><path d="m162.99 719.5-.62-.23c.1.24.29.5.62.23z"/><path d="m172.96 729.8c.07-.05-.22-.29-.26-.21l-.11.23s.09.18.13.15z"/><path d="m182.65 759.85c.15-.21.18-.43.09-.67-.08.22-.12.42-.09.67z"/><path d="m183.14 766.05c.07-.16.09-.28.09-.5l-.26.22s.1.25.17.28z"/><path d="m109.88 724.04c.27.09.52-.13.71-.37.16-.11.12-.09-.06.02z"/><path d="m153.17 719.21.41.09.78.13c-.41-.27-.79-.3-1.19-.22z"/><path d="m174.24 779.31-.02-.24c-.12.14-.19.24-.28.41.1 0 .3-.1.3-.17z"/><path d="m137.88 714.08c-.16-.12-.47-.13-.5.1.12.07.38 0 .5-.1z"/><path d="m168.16 775.79c-.29.19-.41.41-.49.64.26-.22.39-.42.49-.64z"/><path d="m151.81 715.39-.62.1.01.26z"/><path d="m101.92 733.14c-.14.18-.27.4-.31.59.27-.14.34-.32.31-.59z"/><path d="m173.38 758.88-.21.67c.25-.12.35-.37.21-.67z"/><path d="m167.58 721.95-.25.1.52.24c-.02-.34-.14-.4-.26-.35h-.01z"/><path d="m172.39 759.19c-.2.19-.33.47-.31.73.16-.25.25-.44.31-.73z"/><path d="m160.84 718.9h.16s.1.19.14.15l.2-.19s-.19-.16-.26-.15c-.09.01-.24.04-.29.07-.03.02.02.13.05.13z"/><path d="m108.52 725.33-.67.59c.29-.08.53-.24.67-.59z"/><path d="m164.79 723.84-.15.35.52-.34c-.15-.07-.34-.1-.37-.02z"/><path d="m152.6 715.85c-.21-.17-.46-.19-.72-.04l.44.07s.16 0 .28-.04z"/><path d="m174.33 727.4c.08-.07-.05-.37-.15-.32l-.23.12c0 .09.29.28.38.2z"/><path d="m170.95 783.1c-.08.17-.06.37.1.51.03-.21 0-.36-.1-.51z"/><path d="m173.58 726.36-.34-.38c-.07.23-.07.34 0 .35.12.02.24.03.34.03z"/><path d="m167.35 725.13c-.24-.04-.53.02-.54.38z"/><path d="m169.21 774.12c-.18.16-.3.35-.38.58.21-.14.33-.31.38-.58z"/><path d="m176.85 775.86c.05.03.16-.12.2-.19l-.39-.08c.03.07.13.22.19.26z"/><path d="m176.91 730.46.53.27c-.09-.33-.34-.34-.53-.27z"/><path d="m171.94 728.92s-.15.04-.24.11l.49.14-.24-.25z"/><path d="m155.24 718.11c.06 0 .06-.18 0-.2-.04-.02-.16-.06-.18-.03-.02.05-.11.23-.05.23z"/><path d="m166.21 790.85.4-.35c-.22-.01-.43.1-.4.35z"/><path d="m113.07 722.01.52-.23-.08-.19z"/><path d="m120.65 718.35-.24.36.42-.25c-.06-.17-.13-.25-.17-.11z"/><path d="m171.95 752.74c.2-.19.19-.37.05-.55-.03.19-.05.39-.05.55z"/><path d="m102.59 732.43.03-.24s-.13-.1-.15-.07-.07.12-.06.15l.05.24s.13-.04.13-.08z"/><path d="m163.48 719.59c-.17-.03-.32-.05-.4-.05-.06 0-.04.19-.03.22l.43-.18z"/><path d="m181.82 762.14c-.12.19-.11.44.05.53 0-.3 0-.4-.05-.53z"/><path d="m166.37 776.46c-.12.11-.28.3-.43.48.23-.07.34-.19.43-.48z"/><path d="m139.77 714.1c.18 0 .37-.02.58-.06-.2-.14-.39-.13-.58.06z"/><path d="m153.14 716.09.52.11c-.13-.34-.36-.28-.52-.11z"/><path d="m176.92 774.1.26.09-.01-.51z"/><path d="m178.13 772.52h.36c.06-.02.06-.21.03-.23z"/><path d="m167.16 721.39-.43.08.27.14s.15-.13.17-.21h-.01z"/><path d="m177.44 733.16-.41-.2c-.08.23.24.31.41.2z"/><path d="m148.87 718.47c-.17-.19-.38-.19-.55-.05z"/><path d="m179.8 768.92s-.12.1-.12.14v.32l.19-.3s-.04-.18-.07-.16z"/><path d="m183.84 759.4c.05.05.19.19.16.16v-.44c-.11.14-.2.24-.16.28z"/><path d="m176.31 729.73.26-.13-.43-.12s.1.29.17.25z"/><path d="m181.35 766.17c0 .07.21.16.24.13l-.21-.44z"/><path d="m183.58 762.03c-.07-.02-.09.17-.08.32l.19-.13s-.07-.18-.11-.19z"/><path d="m151.05 796.54.61-.33c-.31.08-.48.17-.61.33z"/><path d="m122.64 717.62-.13.53.22-.25c.05-.06-.07-.27-.1-.28z"/><path d="m183.23 763.78c-.05.04-.06 0 0 .21.04.13.07.07.12-.1.06-.23.02-.22-.12-.11z"/><path d="m170.88 787.76.52-.22-.07-.18z"/><path d="m173.75 726.78.26-.08-.47-.15c.07.14.15.25.21.23z"/><path d="m166.69 789.88c.03-.06.06-.17.08-.28l-.38.3c.12.01.27.04.29-.02z"/><path d="m166.67 772.06s.08-.09.09-.12l.07-.21s-.11 0-.12.04l-.08.12s-.12.22-.08.21z"/><path d="m166.42 772.32-.08.12c-.2.33 0 .37.2-.16 0-.03-.11 0-.13.04z"/><path d="m150.9 715.62.15-.11-.28-.11s-.03.13-.04.18.14.06.18.03z"/><path d="m182.97 766.55c-.05.02-.17.07-.16.07l.29.29c-.06-.27-.08-.37-.13-.35z"/><path d="m172.41 758.63-.13.46c.22-.13.25-.31.13-.46z"/><path d="m176.29 776.47c0 .11.29.2.27.08l-.04-.18s-.24.05-.23.1z"/><path d="m175.93 777.28-.05-.29c-.12.15-.18.36.05.29z"/><path d="m134.46 717.82.33-.31c-.17 0-.45.1-.33.31z"/><path d="m155.68 716.57-.41.18.23.08s.11-.1.18-.26z"/><path d="m175.88 779.9-.08.12s-.12.22-.08.21c.03-.01.1-.01.12-.04l.08-.12s.12-.22.08-.21c-.03.01-.1.01-.12.04z"/><path d="m170.86 724.2c0-.09-.03-.22-.03-.22l-.25.26c.13.02.29.02.28-.04z"/><path d="m138.44 714.15.44-.1c-.17-.15-.36-.07-.44.1z"/><path d="m106.33 727.6-.28.41.28-.13c.06-.03.03-.21 0-.28z"/><path d="m147.88 797.76c.22-.08.4-.17.54-.3-.22.08-.4.17-.54.3z"/><path d="m106.75 727.15-.04.22.38-.27c-.05-.04-.32-.01-.33.05z"/><path d="m123.07 717.72-.21-.13c-.03-.06-.06.2 0 .22l.18.06s.05-.18.03-.15z"/><path d="m173.59 785.34.33-.31c-.17 0-.45.1-.33.31z"/><path d="m154.02 716.18-.32-.03.16.16s.17-.11.16-.14z"/><path d="m168.74 767.75c.07-.03-.07.03-.14.06l-.04.24s.12 0 .13-.03z"/><path d="m156.06 717.01-.09-.13s-.22 0-.19.04c.03.06.31.14.28.09z"/><path d="m156.08 716.82h.34c-.18-.21-.34-.23-.34 0z"/><path d="m177.57 772.88c-.05.13-.08.22-.04.22l.17-.02c-.11-.32-.13-.35-.13-.2z"/><path d="m165.46 720.9s.18-.12.15-.13l-.23-.09s-.06.03-.05.05c.04.06.13.21.12.17z"/><path d="m180.66 771.17s.02.14.06.14c.03 0 .12-.03.11-.05l-.03-.18s-.13.07-.15.09z"/><path d="m171.96 776.54s.02.03.21 0l-.03-.27z"/><path d="m177.26 774.46.37.13-.2-.22s-.15.06-.17.09z"/><path d="m162.62 722.79c-.16-.04-.3 0-.34.08.16.04.3 0 .34-.08z"/><path d="m175.43 777.28s.02-.06.06-.26c.05 0-.03 0-.1 0l-.13.21s.13.04.17.05z"/><path d="m178.01 731.34-.08-.15s-.17.02-.16.05l.13.21s.12-.08.1-.11z"/><path d="m169.27 724.51-.3.18c.11.03.25.08.26.04l.05-.22z"/><path d="m175.56 780.47v.23s.2-.04.19-.08l-.04-.15s-.15-.03-.15 0z"/><path d="m139.13 714.16.38-.08c-.18-.18-.33-.05-.38.08z"/><path d="m170.66 783.23.25-.38c-.17.03-.31.18-.25.38z"/><path d="m121.79 718.2.33-.12-.27-.06s-.1.19-.07.18z"/><path d="m121.27 718.3s.14.11.18.07c.02-.03.07-.08.1-.11.02-.03-.08-.12-.11-.1l-.16.14z"/><path d="m108.49 725.08c-.19.07-.35.15-.46.26.19-.07.35-.15.46-.26z"/><path d="m173.17 725.89c-.08 0-.3.07-.26.09.04.03.13.07.18.08.03 0 .11-.18.08-.18z"/><path d="m170.49 788.09c.15-.07.26-.18.33-.32-.2.12-.27.2-.33.32z"/><path d="m174.79 727.62s-.12-.19-.11-.18l-.07.16s-.09.08-.08.1c.05.05.3-.02.26-.08z"/><path d="m156.08 770.55c-.19.07-.35.15-.46.26.19-.07.35-.15.46-.26z"/><path d="m314.53 767.6c-.48 13.26-2 25.62-5.3 38.38-.72 2.77.1 8.59-2.67 9.51-3.4 1.12-4.95 1.7-8.21 3.55.49-22.29 6.3-35 7.22-55.55l-4.85 6.76c-.76 1.06-2.78 2.58-3.96 2.8-1.38.26-4.2-1.76-4.67-3.2l-3.62-11-6.58 12.31c-6.92 4.9-15.61.53-21.13-4.6l-3.84 6.47c-1.1 1.85-6.29 1.12-8.6-.11-10.19-5.45 4.83-28.21-1.38-23.07-3.47 2.87-2.32 11.69-11.89 21.38-1.8 1.82-6.06-1.15-7.58-2.33-2.61 2.24-5.6 5.04-8.13 5.42-3.26.49-9.56-.24-10.57-3.96.42-7.93 4.17-17.17 10.44-22.76 3.38-3.01 12.23 1.29 13.05 5.24l-1.31 16.06c5.91-4.83 8.94-10.59 11.22-17.28l-3.57-4.58c-.39-.5-.44-2.53-.42-3.18.02-.86 2.82-.08 3.57.53 6.18 5.02 10.21-3.07 13.71 1.27 2.91 3.6-4.71 11.74-2.35 18.89 11.01-9.76 5.74-10.05 12.44-16.04 4.55-4.07 10.77-3.96 14.66.57-4.16 1.09-6.9 3.09-8.88 6.04-1.81 2.7-1.86 8.48-.13 10.71.92 1.19 5.02.6 6.06-.37 9.82-9.21 11.51-17.55 15.38-18.25 3.8-.69-3.45 15.09 3.23 22.28 3.56-4.1 6.69-8.42 9.31-13.42l5.02-9.59c.51-.98 3.38.98 3.38 2.09l-.06 8.47c3.28-3.6 7.98-11.47 13.66-11.19.93.04 2.69 1.94 2.66 2.92l-.43 15.5c12.76-5.51.62-12.45 12.26-18.8 2.48-1.36 7.61-.88 9.45 2.81 1.28 2.57-2.37 6.31-4.73 8.43-3.35 3.01-.15 8.14 1.69 10.52.58.74 3.51-.44 4.12-1.34l9.33-13.86c-1.82-9.35-2.11-17.95.53-26.63l9.61-8.7 6.05 3.81 4.3 2.71c.53 3.44-1.05 9.42-3.02 12.96l-2.73-.08c-.48-.01-5.8 13.55-10.11 18.02-.77 4.06 1.05 9.7 3.28 14.15 3.71-4.64 6.31-9.31 9.39-13.73 2.33-3.34 16.93-8.78 21.11-2.27 4.91 7.64-.93 9.01 1.84 14.66 4.51-2.64 8.56-7.91 10.8-12.13.76-.44 3.45-.57 4.44-.58 2.26-1.86 6.46-4.93 8.85-5.28 2.42 1.83 3.43 1.89 6.41 2.27 5.95 5.02-4.67 12.32-.56 18.05l9.36-8.5c1.6-6.73 4.81-11.98 11.37-14.98l13.19 5.34 9.57-2.88c.61 5.3-2.45 6.99-7.03 8.02l-3.45 9.29-13.03 10.21c-1.46 1.06-5.75-1.61-6.69-3.14l-4.37-7.14-12.84 14.48c1.01 10.77.19 21.71-4.66 31.86-1.69 3.53-2.86 8.24-6.61 10.3-2.62 1.44-9.44 1.2-11.84-.51-5.36-3.81-5.19-22.41 6.4-32.47l11.41-9.9c1.59-1.38 1.53-6.74.78-7.9l-4.64 2.63c-.99.56-2.71-2.2-3.44-3.15l-2.83-.34c-.86-.1-1.57-2.2-2.46-4.04-.26-2.89-6.2 7.55-8.78 4.59l-4.11-4.69c-1.71 2.62-4.13 6.23-6.24 8.05-6.34-.18-10.56-5.27-13.32-10.95l-4.75 7.46c-.44.69-2.03 1.63-2.71 1.64s-2.57-1.24-2.82-1.87l-4.52-11.23-8.99 10.59c-1.51 1.78-6.88 2.41-9.03.97-1.92-1.29-3.96-3.54-6.44-6.24l-5.98 5.13c-1.08.92-3.79 1.78-5.05 1.31-1.43-.54-3.39-3.93-3.32-5.52l.66-15.72c-5.69 3.79-9.73 10.48-9.99 17.62v.02zm60.33-40-3.58 5.9.27-5.91c-4.52 2.81-6.33 8.62-4.49 12.69l2.07-2.83c.26-.36 1.09.62 2.03 1.18l3.71-11.03zm4.05 5.11c0-.4-.33-.73-.73-.73s-.73.33-.73.73.33.73.73.73.73-.33.73-.73zm-152.16 20.43c-.04-.88-2.76-2.65-3.62-2.08-4.08 2.7-8.84 9.83-9.34 15.56-1 11.59 13.23-7.85 12.96-13.47zm157.92 14.92c3.63-2.79 12.89-11.97 8.46-14.21-.82-.42-3 .16-3.74.88l-6.04 5.81c-1.78 1.71-1.33 5.51 1.33 7.52zm31.69-.95c5.86-1.34 9.67-5.61 10.3-11.91 2.41-.68 2.72-.95-.13-1.27l-8.11 6.39c-1.07.51-4.4.91-4.14 2 .29 1.21 1.38 3.6 2.09 4.78zm43.5-8.94-10.09-3.56c-2.19 4.73-3.46 8.82-1.55 14.12l11.63-10.56zm-36.89 29.91.47-1.89c.07-.29-.85-.86-1.56-1.41-9.38 8.15-17.9 19.99-9.57 31.79 6.45.6 10.97-25.09 10.66-28.48zm-120.15 26.27c0-.37-.3-.67-.67-.67s-.67.3-.67.67.3.67.67.67.67-.3.67-.67z"/><path d="m296.85 738.56c-.18.83-2.33 2.16-3.2 2.2-4.65.25-3.58-9.1-1.91-11.92l7.16.12-2.06 9.59h.01z"/><circle cx="370.53" cy="736.21" r="1.09"/></g></svg>