<svg viewBox="0 0 32 32" xmlns="http://www.w3.org/2000/svg"><g fill="#03586a"><path d="m29.51 12.99-.3-.08c.07-.06.12-.12.12-.18 0-.14.1-.22.16-.33.09-.18-.21-.36-.39-.35l-.04-.24s.04-.08.04-.07c0 0 .03.02.05.03l.12.12c-.04-.15-.05-.2-.06-.31l-.09-.09-.04-.36.13.21c.06-.17.02-.39-.04-.55.03-.06.1-.24.04-.24h-.12c-.1 0 .12-.05.06-.39l-.02-.11s-.17.13-.17.15l.04.11c.06.17-.25.35-.28.32-.13-.12-.03.02-.16-.37-.02-.07-.03-.2-.09-.2h-.12s0-.09.02-.09h.1c.05-.17-.11-.32-.16-.48-.06-.16-.13-.31-.24-.43-.04-.25-.23-.53-.38-.74-.19-.27-.25-.37-.5-.3-.02 0 0-.04.01-.08l.12-.44c.02-.08.03-.14.05-.2.04.05.11.03.14.02-.05-.04-.09-.08-.13-.12.04-.27-.03-.27-.04-.24-.02.08-.05.11-.08.13-.22-.22-.08-.02-.4-.23l.06-.04s-.05-.03-.05-.04v-.09s-.06-.04-.07-.06c-.07-.1-.2-.2-.33-.24 0-.04.02-.09 0-.11-.05-.03-.21.04-.2.07h.1s.03.12.07.1l.03-.02s0 .09.02.09h.12s-.06.1-.06.1l.22-.03-.04.06.13.04s-.1.09-.09.12c.02.05.12.09.15.13l.23.27.04-.06h.02s0 .02 0 .03-.02.03 0 .06v.4s-.2.04-.26.01c-.05-.02-.09-.13-.14-.17l-.43-.32s-.07-.02-.07 0v.1c.02.09.1.12.2.18.16.09.35.29.5.43 0 .28-.21.47-.47.48-.13 0-.38.07-.5.09-.03 0-.06-.11-.03-.11l.12.02s.03-.1.03-.13c0-.02-.02 0-.11 0l-.09-.25h-.21c-.07.07-.13.12-.18.13s-.17-.1-.16-.16c.02-.29.06-.62.13-.92.1.09.2.17.29.28.07.07.21.11.3.11l-.09.08h.16s-.07-.08-.06-.08h.05l.06.03c-.06-.15-.13-.04-.21-.1v-.02h.05c-.18-.13-.35-.27-.52-.43 0 0 0 0 0-.02.06-.21.09-.35.12-.48s.27.25.27.25c.02.03.03.06.05.06s.08-.02.07-.02l-.11-.14s-.07-.02-.08-.03l-.02-.05-.08-.07s-.06-.05-.1-.06c.02-.13.04-.25.07-.45l.05-.06h-.04v-.03l.04-.31s.15.09.15.09c.05.03.16.09.24.09v.03c-.02.02-.03.03 0 .03 0 .09-.01.17 0 .27.06-.09.11-.18.13-.28h.02s-.01-.01-.02-.02c.04-.15.02-.29-.08-.43l-.02.21c0 .05-.01.1-.02.15-.03 0-.06-.02-.07-.03l-.17-.15s-.04-.03-.06-.04c0 0 0 0 .01-.01.02-.02-.02-.06-.03-.09l-.02-.21c-.07-.02-.09-.03-.09-.04l-.05-.26c-.05.18-.06.35-.07.51-.05-.02-.09-.06-.09-.12h-.08s0 .05.02.06l.04.02s.06.09.11.11c0 .08 0 .15-.02.23l-.02.14s0-.03-.02-.03l-.07.03-.02-.07s-.02 0-.02 0l-.03.04-.02-.09s-.12 0-.17-.11l-.08.02s-.03-.08-.04-.09l-.2-.14-.08.02s-.02-.08-.1-.11l.14-.28-.34.18-.09-.06s-.08-.07-.13-.08c-.05-.02-.11 0-.16.07.08.03.15.04.23.04l.04.08c.09.03.18.09.24.14h.11s-.02.06-.01.06h.07s-.03.04-.03.04.02.04.02.04c.03-.03.07-.06.11-.07l-.08.08c.08.03.13.06.18.11.03.02.1.02.15.02v.07s.21.14.21.14h.12s-.06.07-.06.07h.11l-.03.3c0 .05-.01.1-.02.14 0 .02-.01.05 0 .07-.05.35-.05.11-.11.45-.02 0-.04 0-.06.02 0-.03 0-.07 0-.1 0-.07-.03-.12-.07-.12-.02 0-.04 0-.06.02-.07-.08-.8-.51-.8-.5l-.03.05s-.02.04-.03.03c0 0-.04-.01-.03-.02l.03-.04s.03-.04.02-.05c0 0-.05-.03-.06-.03h-.22s.02-.03.03-.03h.09s-.37-.22-.37-.22l-.12.07.16.09c-.03.09-.06.2-.07.29l-.05.44c0 .07-.01.13-.02.2l-.21-.12s-.03-.07-.06-.06l-.02.02s-.1 0-.09 0c.05 0-.01-.05-.12-.11l-.28-.39s0-.06 0-.06c0-.02.3-.01.33.38 0 .03.09.12.11.09l.06-.09.05-.09c.03-.06-.26-.12-.21-.34l.4.16-.3-.51h-.27s0 .02-.01.04l-.05.31-.32-.23c.02-.11-.01-.23-.14-.2l.1.25-.07.09-.28-.24c-.05-.06-.05-.3-.04-.51l.38.14c.13.05.26.09.39.15l.3.13s.08.06.12.07l.18.06-.03-.16-.39-.19-.11.05.04-.05c.07-.08-.26.02-.48-.16 0 0-.06-.01-.06-.02l.03-.06-.26-.09s-.06-.02-.06 0v.07s-.03-.01-.03-.01c0-.2 0-.37-.05-.34l-.1.06-.06-.06.16-.13-.13-.11c.11.03.21.06.33.02-.19-.08-.32-.05-.48-.12l-.33-.13c-.13-.05-.24-.14-.39-.09l.29.1s.06.02.05.04v.06c.09-.03.22-.02.3.05l-.09.05s.12-.03.16-.03c.06 0 .11.03.16.04-.03-.02-.12.11-.12.15v.24s-.06.01-.06.01l-.12.03s-.06-.04-.07-.07l-.04-.07s-.07.02-.09.03l-.05.03s0-.01 0-.02l.05-.05-.48-.12.08-.07-.28-.24-.26.14s-.05.04-.05.06c-.05.02-.08.05-.08.02v-.08l-.21-.05-.4-.09-.58-.13-.91-.13c-.36-.05-.7-.09-1.07-.11h-.02s-.02 0-.03 0c-.04-.02-.09-.17-.09-.21 0-.02.07-.07.06-.08l-.06-.05s-.06.05-.08.07c-.1.15-.09.09-.56.03-.07 0-.22-.06-.27-.11-.04-.03-.07-.06-.11-.09.04-.01.08-.02.12-.04.05-.02.11 0 .15.03.02 0 .09-.05.1-.04l.07.06c.1-.04.19-.06.3-.05l.27.02s.04.02.05.04c.38.42.69.15.58.25l-.06.06s-.02.09 0 .09l.15.04.15-.22.19.18.33-.24c-.28-.02-.55-.06-.8-.17.02 0 .04 0 .06.01.08 0 .2-.09.26.02l.07-.05s.08 0 .09.02l-.06.1.14-.08s.07.02.1.03c.04-.02.07-.05.09-.03l.06.07.08-.1-.08-.02c-.09-.03-.17-.04-.26-.05l-.79-.06c-.1-.07-.2-.16-.28-.27h-.58s-.15 0-.15 0c-.03 0-.06-.15-.09-.2 0 0 .02-.02.02-.02l-.46.03.25-.26c.12.06.2.1.26.09.05-.01.12-.1.15-.17-.59-.25-.88.25-1.14-.15-.24.03-.52.03-.68-.22l-.24.13c-.4.08-.79.12-1.18.23-.14.04-.25.11-.41.07-.28-.07-.12.29-.4.19-.15-.06-.26-.03-.4 0l-.48.12c-.13.03-.41 0-.65.06-.17.04-.35.1-.5.12-.65.09-.18.07-.86.33-.18.02-.36.13-.53.19l-.78.31c-.12.05-.2.1-.32.15l-.44.19c-.12.05-.2.12-.32.19l-.47.26c-.1.06-.22.29-.65.54-.28.17-.56.47-.58.79l.21-.1c.13-.06.19-.16.2-.29l.13.06.12-.32.69-.33c.03-.07.09-.2.13-.24.03-.03.15.04.15.08v.19c0 .06.13.08.22.1l.05-.31.22-.28s.1-.06.12-.04.06.07.04.08l-.08.08s-.05.07-.06.09c-.06.17.33-.13.51-.22.73-.38.36-.22.45-.4.01-.03.1-.02.12 0l.09.12c0-.1 0-.19.03-.24s.21-.02.27 0l.47-.19s.18 0 .21-.03c.02-.02.02-.13 0-.13s-.06.02-.09.03l-.08.04c.06-.11.13-.15.21-.18l.3-.13.25-.08c.16-.05.32-.18.51-.18.16 0 .26-.04.42-.13l.16.24c.09-.12.22 0 .35 0h.2c-.01.02-.02.05-.03.08l.2-.04c.05-.01.1-.03.13-.07.03 0 .07-.01.1-.02-.02.02-.04.03-.06.05.06-.02.11-.05.16-.08.12-.03.21-.07.29-.1v.02h.07s.01-.03.01-.06h.04s-.01.01-.02.03l.1-.05c.1 0 .23 0 .44.06l.18-.19c.08.01.18.04.21 0l.11-.14c.08.11.13.15.25.17 0 0 0 0-.01 0-.02.04-.05.09-.04.1l.08.08-.13.13.16-.05v-.05c.17.13.6.36.75.29.14-.06.25-.16.42-.08h.02-.1c-.07.02-.14.04-.19.08l.19.02h.14.15c.09.04.18.07.25.07.17-.01.34-.05.37.17l-.14-.06c-.07.11-.21.19-.35.18l-.03.06s-.02 0-.03 0l-.59.08c-.15.02-.31.05-.4.16.05 0 .1 0 .12-.01l.42-.06c.2-.02.32-.13.32-.1v.06s.07-.02.11-.02l-.04.08c-.12.02-.12.02-.04.02l.3.11c.17.06.39.1.5.25 0 .06-.04.17 0 .18.21.07.23-.13.34-.03.03.03.08.15.04.17s-.09.05-.15.08c-.25 0-.5.02-.69.04.03.03.05.04.08.05-.06.02-.11.04-.16.07l-.17.02s.05.02.07.03c-.12.08-.22.08-.32.06l-.04-.12h.17s-.12.09-.12.09c.03.02.1.02.14 0 .02-.01.04-.05.06-.08l.3-.09c-.12-.06-.21 0-.32 0-.29.03-.58.09-.86.15-.13 0-.27 0-.41-.05-.18-.05-.38 0-.54 0-.39.02-.5.05-1 .03-.09.02-.46.19-.5.06l-.04-.14c-.12.16-.28.06-.4.07s.14-.04.17-.06l.28-.18s.04.06.04.06l.2-.09s.04-.08.06-.08.08-.01.07-.01l-.06.07s0 .03.02.02c0 0 .05-.03.06-.04l.41-.14.53-.2c.03-.09.09-.09.16-.09-.05.08-.08.15-.06.15l.14.05c.02-.08 0-.17.05-.18l.12-.04.06-.02.23-.08.05.05s.08-.07.12-.11.06-.07.09-.1c-.03 0-.06.02-.08.03v-.28s-.17.07-.17.07l-.04-.19c.07-.02.14-.04.22-.06l.2-.06s.02.02.02.07l.19-.17-.33.06-.31.07v-.03s-.05.04-.07.05l-.13.03-.2.04c-.07-.02-.13-.05-.28.06-.08.02-.17.06-.24.09-.04.02-.14.02-.19.05l-.22.11c-.12.06-.31.06-.33.23.08-.06.15-.12.23-.15l.33-.12s.05.06.07.05l.07-.05c.02.06.03.12.01.13l-.12.11.23.02s.02-.11.05-.13l.12.13c.1.11.27-.33.44-.16-.08.03-.17.13-.23.23-.33.09-.66.2-.98.34.06.05.09.05.03.06l-.09-.05s-.39.17-.39.17l-.29.1c-.19.06-.38.13-.56.21l-.08.04c-.11.02-.23.03-.34.05-.02.04-.06.09-.09.15l-.38.17c-.88.39-1.76.8-2.48 1.43-.06.03-.1.07-.14.12l-.06.05v.03s0 .02 0 .02h-.06s0 .05 0 .06c0 .02.02.03.03.02-.01.04-.02.08-.03.13l-.11-.02.05-.12c-.06.02-.09.06-.1.1l-.09-.02s-.17.04-.21.06l-.37.28c.06.31-.02.31-.29.63-.02.03-.08 0-.15-.03-.41.55-.04.23-.38.67-.05.06-.03.27-.13.29l-.34-.17.23-.26s-.07-.06-.1-.08l.07-.1s0 0 .01-.02c0 .03.01.07.02.11.17-.17.85-.76.57-1.02.06-.13.16-.22.24-.28-.05.06-.09.13-.12.19 0 .02-.01.06 0 .07.02 0 .05 0 .06-.02.02-.05-.1.02.18-.28l.12-.13.22-.23c.06-.07.13-.14.15-.22-.09.03-.12.11-.18.17-.12.09-.23.2-.33.31l-.03-.11c.03-.06.06-.19.04-.26 0-.04-.1-.03-.17-.01l.02-.06s.07 0 .08 0l.09-.16c.07-.11.4-.42.54-.52l-.09-.04c-.08.08-.17.17-.27.25l-.17.14c-.1.08-.16.17-.24.28-.05.07-.17.12-.13.27l-.06-.06c-.02.07-.07.11-.13.15 0 .06 0 .07-.03.04l-.12.18s-.06.09-.09.15c0 .01-.02-.04-.03-.03-.14.21-.23.26-.36.47-.03.05-.04.06-.07.09-.11.1-.2.25-.28.39l-.11.18c-.02-.06-.04-.13-.04-.2-.08.12-.29.2-.42.21 0 0-.01 0-.02 0v-.04s-.01.02-.01.02c-.02-.03-.03-.08-.06-.14-.13.24-.46.22-.69.03l.26-.58c.09-.21.2-.39.44-.51-.05-.69.37-.73.36-.76l-.02-.16c-.08.06-.21.13-.26.18-.59.67-.18.02-.79 1.06-.41.7-.24.76-.72 1.25-.06.37-.07.5-.29.73-.17.18-.31.42-.45.65-.23.38-.47.74-.67 1.17.21.03.18-.18.26-.28l.43-.55-.32 1.15c-.02.06-.02.23-.07.26-.05.02-.12.04-.22.06-.07.14-.02.32 0 .5.02.17-.18.89-.36.9-.04-.14-.05-.2-.13-.28-.04.45.02.87.13 1.29v.26c.25.27.2.56.13.88-.02.13 0 .31-.07.44l.05.3s.06.06.05.04v-.08c-.03-.33.14.04.13-.76 0-.1.27-.19.28-.08.03.24-.07.51-.03.73.03.15.02.22 0 .37-.1.77.06.75.08 1.1 0 .11-.06.32 0 .41.03.05.08.08.07.1s-.02.08-.02.11l.06.25c.05.21.12.45.16.65l.05.24.08.39.28-.05c.08.1.11.25.06.36-.19-.04-.1-.35-.17-.28-.15.15-.09.19 0 .42.05-.03.07-.05.07-.05s.03.06.02.07l-.09.2s.11 0 .12-.02l.03-.18s.09 0 .1.02l.05.12.09-.36s-.02-.13-.03-.17c.09-.6-.39-.28-.15-.95l.06.19c.06.09.1.18.12.29l.09-.07c.08-.06.18.54.26.78l.17.56.13.44c.02.07.1.21.14.29l.2.35.27.5c.24.45.52.73.41 1.1.13-.05.23-.1.28-.07.12.08.32.34.16.52.26.43.56.54.96.91l.4.38.06.14s.1.02.12 0l.06-.1s.05.06.08.09l.5.56c.05.06.1.16.16.21l.21.21c.09.09.17.18.25.28-.03-.02-.07-.03-.11-.05-.29-.1-.61-.35-.86-.5l-.4-.25c-.82-.5-.43-.43-1.08-.78l-.08-.07s-.09.11-.08.13l.41.37c.19.17.81.6 1.04.73.16.09.7.49.68.51l-.05.09c.13.06.25.14.38.23l.51.35c.33.23.66.43 1 .63l.35.21c.1.06.27.1.37.13.27.21.69.33 1.06.46.88.3 1.14.31 2.09.37.14 0 .23 0 .37.07.11.05.26.09.41.06l.44-.08c-.06 0 1.15.06 1.29-.16.16.04.36.04.58-.03l-.17-.1c.43-.24.49-.2.96-.29.2.06.33.08.48-.07.26-.25.54-.03.7-.24.15.07.33.06.5.02l.47-.09c.17-.03.31-.06.47-.13.09-.04.22-.06.3-.08l.5-.17c.33-.11.64-.29.95-.45l.93-.47c.76-.39 1.13-.84 1.73-1.33.1-.09.24-.16.33-.25l.61-.6c-.14 0-.26.11-.36.22-.57.59-1.77 1.59-2.48 1.91-.7.32-.76.5-1.56.75l-.89.28c-.05.02-.16.07-.21.09-.32.02-.68.08-1 .04-.09 0-.17-.02-.26-.03.02-.01.05-.03.08-.03.16-.06.32-.09.48-.17.46-.23.92-.43 1.41-.6.1-.03.21-.11.31-.15l.55-.26c.32-.15.66-.26.94-.49.15-.12.28-.23.44-.34.33-.22.63-.46.99-.66.03.1-.64.55-.71.59-.16.1-.32.18-.45.32l.39-.24.34-.23c.22-.15.42-.28.62-.46l-.1-.06.19-.17c.08-.07.14-.12.18-.23-.38.02-.24.11-.55.34l-1.01.73-.56.42c-.24.19-.54.29-.82.42l-.49.22c-.25.12-.49.23-.76.32-.31.1-.6.22-.89.37-.15.07-.3.13-.45.2l-.36.15s-.09-.13-.11-.1c-.04.06-.11.15-.14.2 0 0-.01.02-.02.02-.11.05-.22.11-.34.17-.04 0-.08-.02-.12-.05v.1s-.08.02-.11.03h-.03s-.07-.03-.1-.03c-.09 0-.21.06-.27.11-.03.03-.15.03-.19.05 0 0-.02 0-.02.01l-.32.07-.47.07c-.25.04-.5.1-.75.14l-.14-.04s0 .03 0 .06c-.05 0-.09.01-.14.02l-.46.03-.02-.06s-.1 0-.13 0c-.27-.07-.62-.14-.91-.17-.12-.01-.28 0-.38 0-.24-.04-.48-.1-.72-.16.11.02.22.04.32.06l.23.04h.23.55.66s.1-.02.13-.02l.47-.05.58-.08.48-.1.26-.05.24-.05.21-.05c.2-.04.38-.07.57-.13l.3-.09c.15-.05.29-.1.45-.18l.16-.08c.08-.04.17-.09.26-.13l1.06-.47c.23-.1.45-.2.69-.28.43-.16.82-.35 1.22-.56.29-.15.58-.25.83-.46s.5-.4.77-.59l.44-.33c.11-.08.67-.49.72-.71.38-.3.78-.8 1.06-1.17.16-.21.3-.4.45-.62l-.05-.16-.13.09s.02.19-.04.19c-.02 0-.02 0-.07-.02l-.19.29c-.07.11-.18.22-.23.34l-.13.28s-.11-.02-.12 0l-.04.09-.21.21s-.1.09-.17.16l-.24.27c-.13.06-.23.16-.33.27-.15.17-.33.29-.5.42l-.87.68c-.23.18-.44.37-.69.49l-.58.28c-.32.15-.61.31-.94.43l-.41.15-.95.42c-.26.12-.52.22-.77.36-.35.2-.86.34-1.27.42l-1.25.26-.24.05c-.1.02-.21.05-.31.06l-.32.03-.38.02c-.39.02-.95.04-1.32 0l-.25-.03c-.68-.08-.74-.21-1.25-.32-.15-.03-.3-.1-.45-.16l-.19-.08c-.68-.27-1.1-.61-1.62-1.1l-.35-.33-.19-.18c-.24-.23-.23-.26-.43-.45-.22-.21-.19-.24-.46-.5-.06-.06-.12-.13-.18-.2l-.02-.03c.49.28.35.09.79.39l.27.19c.39.41.76.77 1.07 1.04.33.3.69.56 1.1.75.65.3 1.34.5 2.05.62.5.09.99.05 1.5.02.39-.02.76-.09 1.15-.14.36-.05.7-.16 1.06-.23 1.35-.26 1.89-.67 3.14-1.21.73-.32 1.43-.61 2.11-1.02.28-.17.52-.36.77-.57l1.05-.86c.08-.06.65-.71.57-.8l-.22.24.5-.59c.24-.28.65-.88.76-1.22-.11 0-.1.08-.14.14l-.18.32-.16.21c-.04.06-.07.11-.12.17l-.54.65-.39.46s.02.01.05.03l-.02.09-.24.25c-.18.2-.39.34-.59.5l-.61.49c-.29.24-.58.45-.92.62l-.8.4-1.1.46-1.02.45-.62.3c-.47.23-1.28.35-1.81.48-.66.17-1.25.22-1.93.28-.76.06-1.47-.03-2.2-.26-.43-.14-.86-.25-1.25-.47-.47-.26-.87-.6-1.25-.98l-.26-.25c.31.24.58.48.93.68l.63.37c.33.19.72.29 1.09.4l.52.16.54.17-.28-.29c.13.03.27.06.4.09.79.14 2.15-.04 2.95-.23l1.23-.29c.11-.02.22-.06.32-.09l.02.04c.06.12.06-.21.66-.19-.08-.01-.16-.02-.24-.02.18-.08.36-.17.55-.26.47-.23.93-.44 1.41-.64.46-.19.88-.39 1.32-.62.43-.23.79-.49 1.17-.8l.82-.67c.33-.27.61-.55.86-.89l.12-.16-.26.1c.07-.13.16-.25.27-.36l.28-.25c.17-.15.31-.3.47-.48-.15.09-.36.3-.52.39-.11.06-.2.13-.27.24l-.1.04.35-.35.21-.23c.11-.12.2-.21.32-.37l-.25.17-.11.06c.06.02.07.02.04.03-.28.13-.26.28-.55.45l.13-.2s.06-.03.08-.03c0 0 0-.03 0-.05l.14-.12s.07-.01.07-.03v-.06c.11-.11.25-.21.33-.32l.15-.23-.09-.06-.12.2c.08-.01.02.05 0 .06 0 .01-.04 0-.06-.02-.06.06-.12.13-.19.18l.14-.2c.05-.07.14-.16.2-.21.03-.29.12-.13.23-.52-.31.45-.62.87-1.06 1.18.37-.35.71-.73.96-1.2l.51-.95c.17-.17.33-.35.3-.42-.07.08-.14.16-.2.24.18-.34.31-.68.47-1.02l.19-.39.17-.37.12-.02-.09-.05.37-.82c.04-.08.06-.2.06-.28-.13.29-.25.56-.38.84l-.11.24c-.08.01-.29.25-.33.3l-.15.18c.15-.3.27-.59.42-.89l.13-.27c.05-.11.08-.25.1-.37l-.27.62-.17.4c-.09.2-.2.38-.26.58-.09.11-.17.32-.24.45l-.08.07c.04-.23.11-.27.23-.51l.09-.18c.08-.16.15-.3.22-.45l.19-.43c.06-.13.11-.25.14-.39.04-.2.16-.39.17-.59 0-.08 0-.15.03-.24l.08-.24c.02-.08.02-.21 0-.3-.02-.18.1-.34.02-.53-.06.22-.05.43-.07.65-.03.23-.06.45-.13.67-.08.26-.14.51-.25.76l-.22.48-.45 1.03-.18.38s0 0 0 .02l-.06.05h.06s0 0 0 0c.02 0 .07 0 .07-.02.08-.02.15-.07.24-.14.06-.13.13-.32.21-.43l.38-.53h.03s-.06.13-.06.13l-.35.77-.52 1.04s-.05.04-.07.05l-.25.12.21-.39c-.02-.07-.21.31-.24.4l-.06.03s.1.09.15.08c.02 0 .09-.06.19-.15-.52 1.04-.89 1.47-1.74 2.23.03-.14.08-.21.15-.29l.66-.75c.1-.12.35-.47.38-.6l-.35.48c-.1.14-.22.25-.35.36l.19-.23c.15-.19.25-.27.36-.54.03-.07.06-.12.11-.19l.17-.28s.17-.37.14-.32l.11-.19-.08-.05-.21.41c-.13.27-.28.51-.45.76-.03.04-.17.27-.26.29l.13-.2c.14-.22 0 .07.24-.36l.06-.11c.03-.06.05-.11.07-.17.05-.14.15-.28.21-.42.03-.07.11-.16.14-.22.02-.04.03-.11.06-.17l.21-.47.18-.35s.04-.12.06-.17l.1-.23s.03-.13.06-.16c.11-.13.14-.28.21-.43l.17-.4c.06-.13.11-.17.18-.43.04-.14.09-.26.15-.41.07-.03.04-.03-.03-.01l.05-.17.03.02c.08-.13.07-.25.05-.36 0-.05 0-.1 0-.15-.01.02-.02.04-.03.06-.03-.13-.06-.24.02-.36v.07s.06 0 .05 0l-.02-.05s0-.05 0-.05.06-.06.1-.09c-.01-.14-.03-.32-.03-.44l.25-.46s-.02-.09-.04-.08l-.05.06-.06.08s-.02-.01-.03-.02c-.15-.22.47-.52.21-.51h-.12s-.02-.03-.01-.06v-.27s-.07-.13-.04-.16l.09-.12.11.15.17-.29c0-.07 0-.13.01-.18.01.03.03.06.06.08l-.04-.12s.06-.09.11-.13c-.31-.17-.36.16-.53.11-.03 0-.04-.12-.02-.15l.3-.47c0-.07 0-.14.05-.15l.19-.05.08-.33c.02-.06-.08-.15-.13-.22-.04-.06.08-.19.18-.23l.05.48h.12s.05.07.03.07h-.13s.05.05.05.05l.11.02s0 .05-.01.06l-.08.07s.02.07.03.08c.02.02.08 0 .09-.02l.05-.12s.02 0 .1.06c.07-.03.11-.17.1-.32h.07l.05.12s.09.02.08 0l-.02-.16s-.02 0-.03.02c-.02.09-.03-.01-.03-.08-.02-.05-.04-.09-.02-.09.03 0 .11 0 .12.02l.09.26c.02.07.03.2.08.21l.2.06c-.03.09-.06.19-.06.28l.02.39c.12.35.19.64.08.97 0 .02 0 .11.02.11h.11s.05.16.08.26c.01.03.05.09.05.07.09-.67-.01-1.28-.24-1.81l.11-.37s.09-.09.11-.1c.03-.01.17.21.09.34-.12.21.35.37.17.43l-.14.05.27.24c.06.56-.02.23-.02.74 0 .64.15.25.17.83l.09-.37c.06-.22.08-.42.05-.65l-.07-.65.03.02zm-12.85-9.39s-.04 0-.06 0c-.06 0-.14 0-.21 0l-.2.02c-.09-.06-.11-.09 0-.11.09-.02.23.03.35.06.03 0 .06.01.1.02zm-.42-.38c.08 0 .16-.02.22-.05-.02.03-.04.07-.06.07-.04 0-.1 0-.17-.02zm7.3 18.99c-.2.15-.38.33-.57.49-.52.44-1.03.86-1.59 1.25-.04.03-.08.05-.12.07h-.02l-.14-.03c.52-.32.93-.65 1.67-1.21.17-.13.3-.29.47-.43.07-.06.13-.2.19-.28l.04-.07s.06-.03.06 0v.07s0 .11 0 .15zm.2.11c.01.11-.07.16-.16.16zm-.14 0s.04-.09.04-.09c.02.06 0 .09-.04.09zm-8.72 4.55h-.31s.18-.05.18-.05c.04-.01.1 0 .13.05zm-.49.02c-.1.03-.18.03-.27 0 .1-.02.18-.02.27 0zm-.87-.05h-.07s0-.04.02-.08h.06s0 .08 0 .08zm-.14-.02-.16-.04c.06-.04.11-.02.16.04zm-.86-.26s-.02.05-.04.04l-.06-.04s.04-.04.06-.04.02.02.03.03zm-.14-.02s-.12 0-.12-.05c0-.01.02-.03.04-.04h.03l.05.08zm-8.71-7.33.02-.64s.05-.2.08-.42l.08.45s0 .1.04.13c-.02.28.11.42-.22.47zm.21-7.79.12-.27v.13c-.08.1-.12.19-.13.29h-.02c.05-.16.08-.28.02-.15zm.18-.57h.06s-.03.02-.06.03c0-.01 0-.03 0-.03zm.14-.17s-.02.06-.03.09c0-.02.01-.05.02-.07v-.02zm14.8-6.23c.08 0 .12 0 .18.01 0 0-.01 0-.02.01-.02.03-.04.18-.07.16l-.14-.07s0-.06.04-.12zm.27.59s-.07.1-.1.1l-.14-.04-.28-.07s-.06-.06-.07-.06c0-.01.04-.06.05-.05l.06.02c.17-.02.35 0 .48.1zm-3.12 20.97s.03.06.05.11v.04c-.09.02-.19.04-.28.06-.01 0-.02-.02-.03-.03v-.13c.1-.02.18-.03.27-.05zm-12.36-8.24s0-.06-.01-.09c0-.02 0-.05 0-.07v-.03l.2-.25c.05.33.14.65.25.94.02.06 0 .2-.04.24-.05.03-.15.02-.24.01 0 .02-.02.05-.02.07l-.06-.4-.05-.38s0-.03 0-.04zm19.54-9.55c-.11-.07-.22-.15-.34-.21.14-.13.41-.03.53.13l-.19.09zm-.39.21s0-.02-.01-.02c.03.02.06.03.09.05-.03 0-.06 0-.07-.03zm-14.57 12.09s.03.06.04.09c-.01 0-.03-.02-.04-.03zm.1.09s0 .02-.02.02c-.02-.04-.05-.08-.07-.11 0-.06.04-.1.06-.13l.09.15s-.03.04-.06.07zm-1.27-5.54.07-.22c-.02.08-.03.18-.04.28 0 0-.04-.06-.04-.06zm14.12-9.04s-.05 0-.07-.02zm-.13-.08c.05-.04.11-.04.17.02zm-.1-.06s0 0-.01 0h.03l-.02.02zm-1.2-.28s-.02-.03-.04-.05l.07.02zm-16.07 6.19-.06.05s.02-.07.04-.12c0 .02.01.04.02.06zm2.86 12.42s.33.4.33.4c-.15-.09-.27-.22-.38-.33l.04-.07zm.56.49c-.26-.33-.47-.54-.75-.9l.1-.2.23.26c.05.06.15.13.23.17.04.21.13.42.27.68-.02 0-.05 0-.07-.02zm4.64 1.61s-.05.02-.17-.05c.05.02.11.03.17.05zm1.04.31c-.02.06-.03.09-.05.08l-.11-.04.16-.05zm.94.26h-.09c-.06 0-.15-.02-.13-.09.05 0 .17 0 .21.02.02 0 .02.08 0 .08zm1.79-.18c.07-.03.14-.04.2.03-.1.02-.17.04-.23.05l-.21.03c-.1.02-.21.02-.31.01.2-.06.38-.06.55-.12zm.99-.66c-.08.02-.16.04-.24.06-.05-.03-.1-.07-.14-.12.24-.05.48-.1.7-.17l.31.04c-.21.07-.41.13-.63.19zm1.45-.5s.06-.06.09-.08c.02 0 .03 0 .05.02-.05.02-.09.04-.14.06zm-.22-.03s.12.05.17.05c-.07.03-.13.06-.2.08-.06-.02-.13-.04-.19-.06.02 0 .03-.01.05-.02l.14-.06s.03.02.03.02zm-6.28-1.82.12-.1c.06.06.12.11.19.17-.08-.05-.18-.07-.31-.07zm-.26-.36-.65-.26c-.49-.2-.94-.48-1.33-.82.05-.18-.02-.39-.16-.44-.02.07-.03.09-.08.11 0-.33-.15-.46-.31-.7.02.03.05.06.09.09-.06-.09-.12-.17-.18-.26 0 .02.01.02.02.04-.03-.06-.07-.13-.1-.2 0-.04 0-.09 0-.15.24.38.52.71.82 1.05l.68.74c-.2-.29-.44-.52-.66-.78-.26-.31-.52-.61-.75-.95-.03-.05-.06-.09-.09-.14 0-.02-.01-.05-.02-.06l-.03-.03c-.04-.07-.08-.13-.12-.21.05-.06.07-.15-.06-.47 0-.02-.02-.04-.02-.06l.03.05-.06-.1c-.06-.21-.02-.36-.13-.38-.01 0-.03-.01-.04-.02 0-.02-.02-.04-.02-.06.06-.1.04-.17-.01-.27-.1-.17-.09-.4-.16-.57-.11-.29-.32-.54-.4-.86l-.09-.38-.03-1.13c0-.2.08-.5-.01-.64l-.06-.09c.02-.21.04-.42.05-.64-.05.19-.08.38-.09.58l-.09-.15.04-.46.03-.08.1-.29.19-.58.13-.38c.06-.16.08-.27.11-.47l.1.04c-.04.12-.1.21-.09.32.04-.02.09-.19.12-.31l.06.02.08.03c.06.02-.06-.3 0-.34l.19-.1.02-.18.03.03.04-.1s-.03 0-.04.01l-.03.03v-.06c.02-.06.17-.07.21-.1l.06-.35c-.06-.13-.08-.29 0-.41l.06.08c.02-.13.06-.24.11-.34.03-.05.07-.11.11-.16.03-.05.07-.1.1-.15.03-.03.05-.06.08-.09l.19-.18.18-.18-.13.17-.26.34c-.11.15-.35.52-.43.7.2-.24.35-.49.52-.75.28-.41.62-.74.95-1.12 0 0-.02 0-.03.01.06-.09.12-.19.17-.27.06-.04.12-.09.18-.13h.01c.09-.04.17-.09.23-.16.04-.02.07-.05.11-.07l.25-.17c-.09.04-.19.09-.29.15.03-.06.05-.12.06-.19.58-.2.38-.24.91-.42.7-.24.34-.26.84-.41v.02l.08-.04c.12-.03.24-.07.36-.1l-.84.38c-.37.17-.73.34-1.06.55.11-.02.2-.09.29-.13l.4-.19c.23-.11.45-.24.69-.34s.46-.24.74-.27c-.13.08-.23.14-.35.19l-.31.14c-.18.08-.42.17-.53.24-.07.06-.2.07-.27.11-.09.06-.18.13-.27.16-.04.02-.1.07-.13.09-.13.04-.26.1-.33.23l.81-.44.22-.11.39-.2.68-.28c.59-.24 1.09-.46 1.6-.64h.07s.05.01.08.01c-.24.07-.47.16-.7.25l-.29.12-.38.16-.3.14-.41.2.07.02-.1.09.69-.28c.27-.11.53-.25.81-.35l.4-.15-.11-.02.26-.09-.14.1.88-.23.4-.09c.18 0 .35.03.55.09-.27.02-.53.06-.78.11-.51.12-1.01.24-1.49.45l-1.21.53-.88.41c-.71.33-1.37.74-1.94 1.29-.32.31-.59.65-.83 1.01s-.49.7-.69 1.09c-.29.57-.5 1.16-.68 1.77-.17.57-.25 1.12-.25 1.71 0 .86.09 1.7.3 2.54.33 1.39 1.03 2.4 1.98 3.43l.86.94c.25.27.5.53.77.78-.09-.01-.24-.04-.32-.2zm13.11-12.55c.09.18.16.35.03.15-.02-.03-.04-.07-.07-.11.01-.02.02-.03.03-.05zm.06-.11.07-.18.02.04.27.48c-.17-.06-.11-.23-.24-.32l.08.18s0 .05 0 .04l.07.04s-.02.02-.03.01l-.04-.02.15.32c-.1-.17-.22-.37-.35-.59zm.59-4.1-.12-.05s.07-.02.12.05zm-.96-.48.18.09.22.13c.09.08.14.12.25.17.1.05.32.2.38.21-.03.06-.06.16-.02.18.05.03.15.07.2.06.02 0 .04-.04.05-.07h.02s0 .03 0 .04c0 0 .02.02.03.02v.02s-.03.13-.06.12l-.13-.04s-.12-.08-.14-.05l-.09.11-.09-.17c-.25.27-.05.34-.3.39-.04-.14-.05-.26-.02-.37l-.05-.25c-.29-.04-.34-.28-.43-.48l-.09-.18.11.07zm-.36.97s0 .03 0 .04c-.05-.03-.08-.08-.1-.13.03.03.07.07.1.09zm-.39-.32s.05.04.06.08zm-2.08-1.78-.07.03s-.03-.03-.03-.07c.03 0 .06.02.08.03h.02zm-1.18-.33.08.06c.2.03.39.08.59.13.04.04.08.08.1.1.13.17.23.43.33.67 0 0 .14-.08.15-.13l.09-.4s0-.02 0-.04c.19.07.43.13.62.17l-.02.39c0 .13-.03.22-.13.27-.06-.11-.25-.19-.38-.16-.06.02-.01.18.03.22-.12-.04-.24-.08-.36-.1-.21-.04-.39-.09-.59-.15-.06-.03-.13-.09-.24-.18-.63-.55-.31-.59-.66-.94l.13.03c.09.02.17.03.26.04zm-.4-.07-.2.18.21.11s.02.11 0 .17l.19.06c0 .18 0 .26.05.43-.06-.01-.11-.03-.17-.04-.21-.31-.21-.55-.47-.65l.18-.23s-.02-.06-.04-.09c.03 0 .05 0 .08.02zm-1.28-.21.31.06s.01 0 .02.01l.12.04c-.16.03-.41.05-.58-.02l-.36-.15h.23c.08.01.18.04.26.05zm-2.96 1.05s-.04 0-.06 0c-.04 0-.08 0-.11 0 .11-.02.19-.02.17 0zm-7.22 2.44c.02-.07.18-.1.25-.14.13-.08.13-.34.05-.47v-.06l.1.03s.04-.04.06-.05l.27-.18.65-.4c.3-.19.96-.54 1.29-.67l.25-.1s-.03.02-.04.03c-.5.24-.74.27-1.06.59l-.3.29-.16.16c-.29.29-.36.24-.47.47-.91.46-.47.59-.96.8l.07-.32zm-1.55-.21s0-.06 0-.05h.06c.04-.07.1-.17.17-.26l.06.03c-.1.3-.05.14-.3.38 0 0-.03 0-.06-.02.02-.03.05-.06.08-.08zm-.69.99c.03-.14.1-.31.2-.4.01-.01.02-.05.03-.06.1-.02 0 .04.13-.14.07-.09.14-.18.22-.27l-.12.39-.35.37c.08.1.12.18.14.28l-.12.15s-.04-.08-.05-.13l-.15.2-.05-.26.13-.13zm-.15.15-.08.36s-.09-.05-.12-.08c.15-.22.11-.29.2-.28zm-3.01 2.87.1-.32.1-.31c.07-.08.14-.18.21-.3l.14.06c.06.02.46-.48.7-.42.02 0 .04.04.06.07-.13.18-.21.45-.21.58 0 0-.04 0-.05 0l-.07.3c-.01.06-.03.12-.05.19l-.06-.03s.02.09.02.14c-.01.04-.02.08-.03.11 0 .02-.05.04-.05.06v.06l-.02.08-.07.06c-.05.1-.12.26-.24.26-.11 0-.51-.39-.46-.64-.06.07-.07.1-.04.04zm0 .97-.06-.4s.02-.11.05-.11h.17s-.08.37-.08.37c.02.34-.04.62-.17.93l-.12.31c-.04-.08-.01-.17 0-.24-.08-.27.23-.68.2-.87zm.23 6.02c-.06 0-.23-.08-.22-.13l.06-.25c-.07-.15-.24-.34-.24-.5 0-.76-.13-.21 0-.99.03-.18.07-.35.08-.52l.02-.32.28-.03.05.5c.01.13.01.25 0 .38v.87c0 .28.21.98-.05 1zm.39.72-.11-.21-.1.11s-.08-.04-.1-.06l.23-.21-.13-.21.04-.06c.09-.12.29.45.17.64zm3.04 5.53-.36-.31s-.02-.22.02-.27c.03.02.07.05.13.1l.2.25c.05.09.07.17.01.23zm.31.27c-.08-.06-.13-.17-.16-.28l.15.19.21.25-.21-.17zm5.02 3.78c-.24-.1-.42-.16-.6-.22h-.02s.02-.08.02-.08c0-.02.11-.03.13-.02l.39.15s.11.04.1.06zm-1.17-.49-.04.03s-.04-.02-.07-.03l-.42-.2-.49-.36c.04-.2 1.09.56 1.02.56zm-.16.07s-.05-.02-.08-.03c.02 0 .05.02.08.03zm7.28.23v.05s-.03-.02-.05-.04c.02 0 .03 0 .04-.01zm-1.68.38.3-.06.3-.05c-.2.11-.34.17-.61.11-.03.02-.06.05-.07.06h.14s.03.09 0 .08c-.2-.02-.2-.02-.35-.07l-.05-.02c.1-.01.21-.05.31-.07zm-1.12.13c.21-.02.22-.09.26-.05l.03.04c.07-.02.11-.03.16-.03 0 0 0 .01.01.01l.17.09h-.36c-.11 0-.32-.03-.43-.05l.16-.02zm-6.96-3.47s0 .05 0 .06c0 0 .06.02.08.03l.62.7s.09 0 .09.02v.05l.33.32c.33.32.64.63 1.03.87l.09.06c-.33-.19-.6-.29-.96-.49l-.5-.28s-.05-.03-.08-.05l-.9-.95-.64-.74-.37-.43-.19-.24c0-.05 0-.1 0-.15l.27.2c.18.13.35.25.53.38 0 0 0 0 .01.01l.58.64zm.81-.01-.06-.06c.21-.09.4.09.55.18l.09-.09s.06.06.09.09c.06.06.11.11.17.17 0 .02-.01.05-.04.06-.28-.02-.57-.15-.8-.34zm15.36-3.44.07-.02s.01 0 .02 0l-.04.06s-.04.01-.05 0c0-.01-.01-.04 0-.05zm-.15.7.13-.19c0 .09-.04.16-.13.19zm-.06.05s0 .05.01.05l.08-.02s-.02.13-.06.17l-.36.38c-.11.11-.22.21-.34.31l-.93.78c-.81.68-1.43.92-2.37 1.35l-1.44.64c-.21.09-.39.21-.59.29-.06.02-.12.04-.18.06h-.39s-.1-.11-.1-.11c-.02-.02-.09.03-.12.05l-.15.08c.13.13.3.12.47.09-.27.08-.54.14-.81.21-1 .24-2 .44-3.03.41-.31 0-.59-.07-.88-.14l-.08-.12s.07-.12.05-.15c-.08-.14-.34-.06-.81-.25-.02 0-.09 0-.09-.02v-.11l-.37-.11c-.14-.04-.25-.11-.32-.23-.02.03-.05.1-.05.1-.11-.03-.22-.06-.32-.06-.06 0-.1-.15-.07-.21l.04-.07c.07-.13-.11.1-.31 0-.06-.03-.09-.16-.09-.23l-.34-.35c-.08-.08-.21-.1-.21-.25.32.09.51.33.8.51-.17-.35-.51-.49-.79-.73l-.65-.55-.33-.29c.3-.03.34.11.66.36.24.19.67.55.88.75.03.03.07.07.09.06l.09-.08c.25.22.5.43.78.62.56.39 1.28.59 1.94.73 1.07.24 2.48 0 3.54-.26.56-.13 1.07-.31 1.6-.55l1.31-.58c.91-.4 1.65-.73 2.45-1.33l1.1-.83s.06-.05.09-.07c.02 0 .04 0 .05-.02l.02-.03c.18-.16.35-.34.52-.53l.02-.02v.13s.09.02.1.02l-.06.14zm.06-.55c0 .1-.08.12-.14.12zm-.13-.64c.03-.08.08-.14.17-.17-.05.06-.09.1-.17.17zm2.58-5.37c-.08.31-.2.58-.33.88l-.35.77-.42.94c-.11.24-.22.47-.34.7-.19.38-.36.75-.64 1.09.03-.06.07-.12.11-.19v-.15s.09-.03.09-.05l.02-.07s.02-.02 0-.02h-.06c.07-.06.11-.15.14-.25 0-.03.06-.1.08-.13.07-.14.13-.31.23-.43.03-.04.13-.06.09-.12 0-.02-.02-.02-.04-.03l.37-.79s-.05.04-.06.06c-.1.23-.2.45-.31.67v.06s-.01 0-.02 0c-.16.34-.32.68-.51 1.01-.25.44-.57.8-.93 1.15-.06.06-.08.15-.09.22l-.17.17s-.09-.06-.11-.05l-.14.07c.06-.08.13-.15.2-.22l.04-.04c.3-.31-.45.26-.41.23-.27.23-.52.45-.8.66-.36.27-.69.54-1.06.79-.49.33-1 .61-1.54.85l-.04.02-.07-.02c-.18.1-.35.07-.54-.02-.12-.05-.32.09-.44.1-.24.02-.53.09-.74.04l-.33-.07c-.09-.02-.2-.03-.28-.05l-.1.03s0 0-.02 0c.05-.02.1-.04.16-.08-.06.02-.12.04-.18.06-.02-.03-.06-.07-.07-.06-.12 0-.34 0-.5-.06l-.27.21s-.05.04-.06.03l-.06-.06s-.07-.06-.09-.07-.08.05-.06.07l.08.1-.28-.03c-.06 0-.14.14-.2.18-.14-.25-.42-.26-.65-.24-.22.02-.29.15-.35.09l-.08-.09c-.13.01-.27.02-.41.02h-.33c-.11 0-.23-.08-.34-.12-.21-.08-.41-.13-.62-.2-.11-.03-.29-.03-.42-.08l-.03-.02c-.17-.14-.33-.28-.49-.44 0 0 0-.02-.02-.02l-.24-.24-.4-.41-1.17-1.3c-.56-.62-1.06-1.29-1.39-2.06-.5-1.15-.61-1.95-.69-3.18-.06-.93.05-1.83.39-2.7.1-.26.17-.5.29-.75.2-.41.14-.44.45-.91l.27-.39.2-.29c.15-.22.43-.64.63-.83l.17-.16c.21-.2.43-.37.67-.54l.26-.19c.14-.1.29-.2.45-.28l.47-.24c.2-.1.4-.21.61-.3l.23-.1.53-.24s.07.02.08 0l.03-.05.47-.21h.12l.05-.06s.06-.01.09-.02c.08-.04.2-.08.29-.11l.33-.11c.12-.04.25-.08.37-.11.03.02.05.02.05 0l.17-.05c.4-.12.8-.17 1.22-.19.17.06.35.14.5.02l.05-.04h.12s.01.03 0 .04l-.08.11.06.04.31.02c.15-.02.26 0 .33.15h.21c.06.06.16.13.24.12.14-.02.19.09.27.13l.66.29c.18.08.4.12.59.18.17.06.3.19.44.28.55.33.39.14.94.59.14.11.36.17.4.38.3.28.58.3.79.46.36.27.51.4.97.54.05.02.16.12.14.16l-.09.16s0 .11.03.13c.1.07.34-.11.46.21.02.07.15.14.22.17l.02-.3c0-.09.02-.06.06.02v.42h.13c-.06.15-.1.32.05.44.03-.03.02-.15.03-.19l.04-.14s-.09-.08-.11-.11c-.06-.14-.07-.37-.1-.53-.02-.09-.1-.21-.09-.31 0-.03.02-.06.04-.09l.08.15.34.66v.05h.02l.14.38c.02.07.05.12.07.2.02.1.08.1.16.36l.09.32c.06.22 0 .46.16.72.02.03.02 0 .02-.03v-.06s.06 0 .06.03c.02.06.02.16.02.23l.02.38c.02.3.02.58 0 .89l-.04.51c-.04.52-.15.53-.17.62l-.05.28-.09.21s0 .05 0 .06.01 0 .03 0c.08-.18.16-.35.2-.53.08-.31.16-.61.17-.94.03-.58.06-1.15-.02-1.73-.03-.25-.13-.47-.11-.71l.16.77.09-.03v.04s-.07.06-.06.07l.09.06.02.98v.19l-.03.45c-.01.21.03.19-.02.43l-.06.05s.02.07.02.09l-.04.24s-.05.1-.07.13c.06.1-.16.3-.04.46l.05-.03.02.02-.05.07s.11-.01.12-.06c0-.06.04-.09.08-.15.08-.11.12-.3.13-.44 0-.08-.02-.15.07-.22l-.02-.17s.02 0 .03.01c0 0 .03-.02.03-.02v-.27c0 .13.12-.72.13-.7 0 .16-.03.31-.03.47 0 .17 0 .33-.04.48 0 0 .03.05.03.04l.03-.06h.01s.02.04.02.05l-.03.1s-.04 0-.07 0l-.02.05s0 .08 0 .07c0 0 .02-.03.04-.06 0-.05 0-.05.02 0-.02.24-.07.11-.05.33l-.11.21c-.01.18-.1.26-.23.56-.12.29-.31.69-.44.96 0 .02-.05-.03-.06-.02s-.05.04-.04.04h.09s-.02.06-.03.08l-.09.11c-.06.07-.1.14-.13.24l.11-.06-.16.35c-.07.16-.15.32-.23.48-.01.02-.01.09 0 .09.04-.05.1-.12.13-.1l.09.05s.07-.05.08-.08l.13-.33s-.1-.03-.12 0-.02.12-.03.15c-.02.06-.09.13-.13.19-.07-.11.04-.17.06-.25.05-.15.12-.29.2-.43.03-.06 0-.19.11-.17l-.05.12s.06.09.08.09l.08-.08v.14c.04-.06.06-.12.13-.16 0-.04.02-.07.04-.13.04-.03.06-.08.07-.14.01-.05.09-.13.11-.18l.19-.46h-.02l.1-.21.14-.13h-.04s-.04-.01-.03-.02l.03-.05c.06-.09.1-.16.17-.24l-.04-.06s.03-.07.04-.1c.02 0 .03-.02.04-.03.02-.03.02-.07.02-.1.11-.28.2-.55.26-.89 0 .02.02.04.03.06l-.09.35.04.03-.06.23v.02zm.25-1.99s-.02 0-.02.01v.03l-.03.07.02-.28c0-.09 0-.16-.01-.27l-.02-.35s.05.08.04.11c-.03.09-.03.21 0 .31 0 .02 0 .03.02.05.02.04.05.08.09.1l-.09.21zm.12-5.37-.05.17s-.16.11-.21.09c-.14-.05-.3-.26-.31-.39l.23-.21c.08-.08.29-.1.42-.13.02.18 0 .32-.08.48zm.57 1.41.05.17s-.16.05-.2.03c-.05-.02-.14-.14-.13-.19.03-.1.13-.25.19-.31.11.07.23.13.24.2 0 .04-.16.06-.15.1zm.3.1h.14s0 .09 0 .15c0 .05-.1.17-.15.15s-.13-.09-.15-.14.1-.15.16-.15zm.21 1.22c-.17-.02-.43-.24-.32-.45.17 0 .38.25.32.45z"/><path d="m23.21 5.8s.01-.04 0 0z"/><path d="m28.23 11.83s.02 0 0 0z"/><path d="m28.22 11.83s0 0 .02 0c0 0 0 0-.02 0z"/><path d="m29.42 14.71-.15 1.02c-.02.1-.03.2-.05.29l-.11.42-.12.47-.09.36c-.02.09-.13.21-.14.28l-.08.36c-.03.13-.1.32-.16.42-.01.02-.12 0-.12-.02 0-.12.21-.63.08-.91-.06.2-.09.38-.12.58-.03.18-.19.39-.2.58 0 .12.05.32.06.47.09-.13.11-.25.12-.41l.27-.13.06-.21.24-.67c.07-.21.24-.35.2-.62-.02-.11.02-.35.09-.45.29-.42.11-.48.35-1.08l-.06-.14c.02-.21.06-.42-.06-.61z"/><path d="m4.24 23.02c-.09-.15-.23-.24-.25-.45l-.26-.29c-.16-.17.02-.42-.21-.77-.24-.37.06-.3-.13-.5-.02-.02-.1.05-.12.09-.11.31.3.57.25.85-.02.1-.03.17.04.25.01.02.25.52.33.66l.19.32.15.25s.2 0 .24-.04l-.23-.38z"/><path d="m2.04 12.37s-.16 0-.2.04c-.03.03-.03.13-.05.17l-.4.92-.26.63c-.1.24-.14.47-.2.73-.03.16-.11.32-.11.5v.54c0 .2-.02.43-.05.63-.11.78.09.58.07 1.46 0 .25 0 .45.09.7.18-.43 0-.87-.01-1.02-.03-.28-.11-.62-.09-.89l.06-.83c.05-.62.04-.96.26-1.51-.01-.02-.07-.09-.06-.1l.04-.08.17-.32.16-.29c.05-.09.09-.25.16-.36.23-.36.5-.69.5-1.14l-.08.21z"/><path d="m5.81 25.25.03-.13s-.08-.04-.13-.06c-.11-.05-.31-.35-.41-.51-.1-.17-.31-.33-.45-.49-.34-.39-.24-.56-.38-.51-.16.05-.14.02.11.36l.21.28.41.52.43.51s.15.08.16.04z"/><path d="m2.36 19.08c-.06-.28.06-.32-.2-.48-.02-.02.09-.08.12-.1l-.05-.48-.11.04c.21-.39-.08-.73-.04-1.18-.13.2-.11.32-.1.48l.03.55.03.49c.19.17 0 .32.11.38.21.12 0 .38.15.54l.25.25c0-.23-.14-.33-.18-.5z"/><path d="m27.85 20.44c.47-.74.58-.65.73-1.75.02-.07.03-.14-.04-.06l-.09.42-.25.63c-.09.23-.24.45-.38.63l-.37.51c.28-.07.3-.23.4-.39z"/><path d="m28.19 12.51s-.08 0-.09-.02l-.15-.22-.25.14.3.24.07.44v.08s.05.03.06.02l.04-.06.09-.12s-.06-.09-.05-.12l.02-.11s.02.02.04.02l.08.03-.05-.44-.1.13z"/><path d="m3.23 22.1-.07.04-.08-.36s-.07-.07-.09-.09.08-.1.06-.12l-.13-.14c.02-.08.02-.15 0-.24l-.06-.32-.09-.39c-.2.49.35 1.9.64 2.36l.07-.21-.2-.46s-.03-.07-.04-.06z"/><path d="m13.7 27.55-.31-.04c-.1-.02-.21-.2-.31.02.2.04.45.12.64.12h.48c.17 0 .32 0 .48-.04l-.57-.09s-.41.02-.41.02z"/><path d="m5.67 25.51-.28-.27-.16-.17s-.03.15 0 .19l.5.44c.13.11.25.2.4.29-.08-.28-.32-.33-.48-.49z"/><path d="m8.85 5.17c-.01.12.89-.28.86-.39-.14.02-.24.05-.36.11-.44.21-.48.13-.49.28z"/><path d="m6.78 26.38-.19-.19-.35-.24c-.05.21.18.2.29.29l.24.21c.06.06.91.66.95.48-.19-.12-.37-.21-.53-.32-.14-.1-.24-.18-.41-.23z"/><path d="m28.1 17.12-.21.47c.16-.13.23-.31.3-.5l.13-.36c.06-.16.08-.37.09-.53l-.17.49c-.05.15-.09.3-.14.44z"/><path d="m2.47 19.72c-.07.13-.03.27.06.37 0 .13.04.29.23.28-.08-.26-.15-.45-.29-.65z"/><path d="m3.93 23.35-.14.02.08-.16c-.17-.15-.26-.32-.31-.55-.17.23.02.42.12.58l.34.57s.07.09.1.11.13-.04.12-.07c-.04-.21-.38-.15-.31-.5z"/><path d="m17.62 3.27c.29.18.26.12.65.29.04.02.06-.15.02-.17-.03-.02-.08-.02-.14-.03-.19-.06-.35-.12-.54-.09z"/><path d="m21.32 4.55.58.21s.12-.02.15-.03c.02 0-.03-.06-.06-.06h-.08c-.46-.25-.38-.06-.71-.27 0 .03 0 .1.02.11z"/><path d="m28.64 15.15.1-.28c.06-.18.09-.36-.09-.54-.01.11.02.28.05.38-.06.11-.13.31-.06.43z"/><path d="m26.33 24.32c-.06-.02-.22.09-.38.23.05-.13.06-.24.16-.35-.09.05-.17.13-.19.24h-.09s-.02.19-.02.19l-.05-.03s-.04.01-.04.02v.05s0 .07 0 .11c-.03.04-.06.07-.08.1-.02 0-.03.02-.05.02l.09-.12-.1.06.06-.1s-.09.09-.11.13c-.07.02-.15.08-.17.16l.13-.09v.08s.06.05.08.05l.17-.21c.05-.03.1-.07.13-.1l.45-.44z"/><path d="m13.24 27.91-.03.15.52.19.1.04s.04-.1.02-.11l-.07-.02c-.21-.06-.39-.14-.55-.25z"/><path d="m27.67 13.55-.1-.8-.09.24c.12.17.16.41-.03.57h.21z"/><path d="m11.14 3.72s-.02.15.01.18l.39-.18c-.14-.11-.34-.06-.4 0z"/><path d="m12.36 5.02s.1.03.13.02l.32-.13s0-.15 0-.14l-.37.17s-.09.07-.07.08z"/><path d="m17.91 14.76c-.05-.14-.14-.37-.25-.43l-.42-.25c-.48.05-1.26-.2-1.68-.44-.48-.28-1.15.3-1.54.64-.44.39-.62 1-.59 1.59.06 1.34.29 2.06 1.38 2.76.35.23.72.22 1.12.16.67-.11.87-.34 1.36-.78.44-.4 1.25-1.13 1.28-1.79 0-.22-.1-.58-.23-.77-.16-.23-.34-.39-.43-.68z"/><path d="m10.36 22.76c-.05-.08-.09-.13-.13-.17.03.08.07.13.13.17z"/><path d="m10.49 9.67c.06-.02.11-.05.14-.08-.06.02-.11.05-.14.08z"/><path d="m10.87 9.38-.15.11c.08.02.13-.03.15-.11z"/><path d="m10.75 9.58c-.07.02-.12.05-.17.09.07-.02.12-.05.17-.09z"/><path d="m9.57 22.09-.11-.12c.02.07.06.1.11.12z"/><path d="m12 8.78.16-.08c-.06-.01-.14-.02-.16.08z"/><path d="m12.49 8.56-.06-.03s0 .1-.02.09l-.07-.03s-.04 0-.05-.01c-.01 0-.02.03 0 .03l.05.03-.34.2.69-.33c-.06-.03-.14.09-.19.06z"/><path d="m12.63 8.48.14-.08c-.07 0-.12.02-.14.08z"/><path d="m11.85 8.79-.07.1-.06.09.26-.12c-.06-.06-.12-.1-.14-.08z"/><path d="m8.82 11.69.02-.05s0-.05 0-.04l-.05.03s.04.07.04.06z"/><path d="m11.55 9.02c.05-.02.1-.04.15-.09l-.28.1.12.06v-.06z"/><path d="m10.41 9.84.15-.12c-.07 0-.15.05-.15.12z"/><path d="m7.49 14.46c.07-.06.09-.11.05-.18z"/><path d="m7.71 13.71c-.09.18-.14.35-.16.54.08-.18.13-.36.16-.54z"/><path d="m10.72 9.37.22-.15c-.1.02-.2.07-.28.13l-.2.15c-.17.13-.35.16-.3.26l.55-.39z"/><path d="m7.77 13.57c.06-.09.08-.17.08-.26-.06.09-.08.17-.08.26z"/><path d="m9.52 22.24h-.07s.02.04.02.06.05-.01.06-.02c.02 0-.02-.04-.02-.03z"/><path d="m7.45 14.71c.06-.05.07-.1.04-.16z"/><path d="m7.54 16.48s0-.09-.02-.1c-.01.05 0 .09.02.1z"/><path d="m9.19 21.69c-.02-.06-.05-.1-.08-.14.02.06.05.1.08.14z"/><path d="m8.91 11.51.14-.19c-.08.03-.15.09-.14.19z"/><path d="m9.4 10.76-.07.11.1.02s.02-.21-.04-.12z"/><path d="m10.02 10.08.08-.03s0 0-.02.03l-.03.04s.13-.06.13-.09v-.13l-.15.1s-.02.05-.02.06 0 .02.01.02z"/><path d="m9.55 10.72.08-.09-.1.04.21-.28s.09-.05.15-.06c.05-.02.12-.11.15-.17l-.13.09.1-.13c-.11 0-.13.07-.18.13-.07.11-.17.21-.26.32l-.12.15s.09.05.11.03z"/><path d="m9.21 11.09.03-.06v-.06s-.11.11-.11.11c.04 0 .07.02.08 0z"/><path d="m9.16 11.14c-.09.01-.12.07-.08.12z"/><path d="m25.44 13.87c-.05.06-.03.11.01.15v-.15z"/><path d="m24.75 19.2s-.05.03-.05.03.03.07.04.06l.02-.05s0-.05 0-.04z"/><path d="m24.67 19.99c.06-.03.1-.1.11-.13 0-.01-.02-.06-.03-.05l-.04.03z"/><path d="m17.4 24.15c-.09.03-.15.07-.21.12.09-.03.15-.07.21-.12z"/><path d="m17.7 24.02c-.1.04-.18.08-.26.14.1-.04.18-.08.26-.14z"/><path d="m24.91 18.87s-.07.09-.08.15c.05-.03.08-.09.08-.15z"/><path d="m25.44 17.68.09-.16c-.07.03-.1.1-.09.16z"/><path d="m25.34 17.84c0 .06 0 .05.04.01l.02-.07s-.12.04-.06.06z"/><path d="m14.79 8.03c.09-.02.17-.05.25-.1-.09 0-.17.03-.25.1z"/><path d="m15.36 7.84c-.07.02-.12.04-.18.06.07.02.14 0 .18-.06z"/><path d="m14.12 8.29.19-.07c-.09-.04-.14.02-.19.07z"/><path d="m13.87 8.37c-.09-.02-.18 0-.24.06.08 0 .08 0 .07 0 0 0-.06.03-.07.04l-.34.15-.02-.03s-.01 0-.02 0c0 0-.01.04-.02.04l-.05.03s0 .02 0 .02h.06l.24-.1c.12-.05.25-.13.37-.21z"/><path d="m13.92 8.36c.07-.02.12-.05.17-.09-.07.02-.12.05-.17.09z"/><path d="m25.31 17.31.04-.11-.07.04s.02.08.03.06z"/><path d="m24.26 20.17c.07-.03.1-.09.09-.17z"/><path d="m24.63 19.7c-.06.04-.11.12-.11.21.04-.06.06-.1.11-.21z"/><path d="m24.49 19.48c.13-.24-.11.03.18-.29 0 0-.03-.06-.02-.06l.04-.04c0-.18.31-.58.29-.6l-.04-.05c.08-.04.11-.08.14-.16l.11-.31c.03-.08.12-.17.1-.28.03-.03.08-.09.1-.12h-.09c.11-.06.19-.13.14-.25l.12-.17s-.04-.03-.04-.04l.04-.1c-.09.03-.18.04-.25.12l.14-.06-.06.21c-.02.07-.11.15-.09.23-.03 0-.05.01-.06 0l-.04-.06s-.06.04-.1.09h.13c-.03.08-.11.12-.21.13l.03.14.08-.11s.03 0 .04.01l-.16.29-.1.04v-.09s-.07.14-.07.14l.09-.02s.02.02.02.06c-.23-.05-.15.15-.28.27-.02.02-.06.05-.05.06l.03.05-.15.13.09.08c.04-.11.08-.15.19-.17 0 .04-.03.08-.06.13l-.08.12s-.05-.08-.07-.07c-.03.02-.06.07-.06.09s.06.04.13.06c-.08.24-.26.59-.44.75l.11-.02c-.02.07-.2.36-.21.36h-.1s.08.06.08.06c-.07.13-.13.26-.18.39.23-.32.36-.64.54-.96z"/><path d="m24.55 18.87-.1.13s.01.03.02.03l.12-.08-.03-.08z"/><path d="m24.77 19.8.11-.13c-.02.2-.28.63-.38.79 0 0 0 .05 0 .04 0 0 .05-.03.05-.04l.42-.81-.17.02s-.04.08-.03.13z"/><path d="m25.16 18.82s0 .09.03.09c.05-.01.08-.09.04-.14l-.07.06z"/><path d="m15.54 7.81-.16.04c.06.05.12 0 .16-.04z"/><path d="m22.57 21.19s.08-.03.11-.04c.02 0 .02-.05 0-.1l-.12.15z"/><path d="m25.04 17.11c-.03.14-.13.25-.13.39.12-.2.19-.38.28-.59-.1.03-.13.11-.15.2z"/><path d="m23.14 21.68.12-.02c-.06-.06-.1-.02-.12.02z"/><path d="m24.78 17.83.12-.3c-.08.1-.16.22-.21.33l-.22.52c-.07.17-.08.14-.19.39-.12.27-.24.54-.38.8l-.09.17c-.22.43-.4.66-.74 1.03-.24.26-.24.2-.38.5 0 .03.09.02.12 0 .02-.01 0-.09.02-.11.08-.16.58-.61.8-.95.24-.37.41-.75.59-1.15z"/><path d="m24.4 20.09c.08 0 .13-.1.06-.14z"/><path d="m25.51 18.6-.04.08s.03-.02.05-.03c0-.02 0-.04 0-.05z"/><path d="m25.87 16.68.07-.05-.02-.12z"/><path d="m25.04 19.46s.02 0 .04 0c0-.02.02-.04.02-.06.03-.19.19-.32.2-.53-.11.17-.2.37-.26.57z"/><path d="m15.73 7.76-.16.04c.06.05.12 0 .16-.04z"/><path d="m25.94 16.64.01-.01h-.01z"/><path d="m25.46 14.53c.02-.1.02-.18 0-.27-.04.09-.04.18 0 .27z"/><path d="m16.53 7.66s-.02-.05-.03-.05l-.14.03.11.03s.05 0 .06 0z"/><path d="m16.33 7.66c-.15 0-.27.02-.41.08l.21-.02c.07 0 .14-.02.2-.06z"/><path d="m25.03 24.53-.02-.07s-.05.02-.06.02c-.17.32-.26.26-.32.4l-.07.18c.17-.04.31-.14.43-.27l.21-.23.36-.4s.09-.06.09-.13l-.14.08c.06-.25.3-.03.29-.37.02.02.05.07.06.06.18-.24.1-.07.14-.32l.02.07c.02.07.27-.33.28-.4-.13.07-.15.23-.26.32l.2-.36s.31-.48.15-.5c-.03.08.02.2-.12.21l.09-.24c0-.09.02-.16.04-.26l-.09.18c-.07.14-.13.27-.17.4l.07-.04s.04 0 .04.02l-.02.06c-.02.08-.03.13-.1.19l-.02-.14s-.09.09-.1.13c0 .03.04.09.06.13 0 .01-.03.05-.04.06-.02.03-.03-.12-.06-.09-.13.13-.09.2-.24.37-.06.06-.13.15-.14.24 0 .02-.04.09-.05.08l-.07-.04c-.08.08-.14.16-.21.25l-.09.12s.03.07.05.1c-.09 0-.17.02-.22.07.04.03.07.06.06.07s-.05.05-.05.05z"/><path d="m12.04 4.73c-.03.05-.02.04 0-.02l-.61.25c-.1.04-.18.07-.24.16l-.02-.06s-.05 0-.06.02c-.63.24-.89.36-1.49.69-.1.05-.2.11-.27.17.06.05.12.06.13.02-.04-.08 0-.04.05 0 .11-.06.21-.12.33-.19l.22-.13c.25-.15.26-.06.38-.14l.22-.15c.14-.09.2-.05.31-.11.13-.08.27-.12.43-.13l.05-.09c.09 0 .18-.15.18-.06v.04l.17-.12s.09-.02.12-.04c.1-.05.25-.09.34-.1.02 0 .06-.06.08-.05l.04.05.06-.09s.08 0 .12.02c.04-.07.19-.17.27-.2.02 0 0-.05-.01-.04 0 0-.05.03-.06.04l-.35.12-.38.14z"/><path d="m16.65 3.16c.05.01.12 0 .15.02l.13-.04.04.05s.24-.05.37-.03l.39.04v.05s.13-.04.13-.04c-.01.03-.03.06-.02.06h.06l.11-.04v.04s0 .02 0 .02.05-.03.05-.03h.26c-.09.02.29.07.37.07l-.05.05c.12-.02.17-.02.27.01.08.03.17.02.24.04l.24.04c.08.01.17.04.26.06h.22s.2 0 .2 0l.04.07s.13-.03.15-.02l.03.05.22-.06h-.13c-.09-.21-.23.05-.34-.12l-.38-.03s-.11-.05-.15-.06c-.03-.01-.12.02-.15 0-.02-.02-.05-.06-.06-.06l-.08.03c-.08-.05-.19-.09-.29-.1l-.42-.04-.81-.09c-.2-.02-.39-.03-.58-.02h-.35s-.09.03-.11.07z"/><path d="m9.62 5.26.06.03s.07-.04.09-.05l.24-.1-.02-.08c.06.01.09.02.13 0 .03 0 .06-.05.09-.09.02 0 .06.02.08 0l.06-.06s.42-.17.38-.21c-.05-.06-.55.16-.58.21l-.03.06s-.01-.02 0-.03v-.04l-.29.16-.21.1-.89.48c-.06.03-.1.09-.14.14 0 0-.02-.03-.02-.04 0 0-.05.02-.06.02l-.12.11c-.06 0-.14.04-.14.09 0 .02.08.05.1.03l.05-.06c.2-.13.34-.18.49-.28l.38-.23.17-.02c.05-.09.11-.13.19-.17z"/><path d="m27.86 22.06c-.06.02-.06.13-.02.18-.02 0-.05-.01-.06 0l-.03.05s-.07-.05-.06 0c0 0 .01.07 0 .07l-.29.43c-.07.11-.11.25-.09.26l.06.03-.05.11c.1-.05.37-.51.38-.53l.04-.22c0-.06.06-.08.09-.1.03-.07.06-.14.13-.19 0-.02-.09-.09-.12-.08zm-.32.74c-.04-.06.05-.1.1-.09z"/><path d="m9.24 6.13.05-.06h.06s-.05-.12-.05-.12l-.38.22-.34.21c-.21.12-.39.25-.57.44.12.02.21-.04.27-.13l.11-.02c.04-.07.09-.15.14-.17.1.03.2-.05.22-.14l.17-.08c-.02-.09 0-.09.03-.04.02 0 .06 0 .05 0s-.02-.05-.02-.06c.05-.04.22-.03.24-.06z"/><path d="m21.86 3.96-.29.04c.16.1.27 0 .46.13.02.01.05.06.07.05h.05c.06.09.39.14.41.07l-.38-.17s-.07 0-.08 0c0 0 0-.03.02-.05l-.25-.07z"/><path d="m20.02 3.95c-.09 0-.15-.01-.21-.03l-.11-.03c-.13-.03-.26-.05-.4-.06-.16 0-.31-.06-.49-.09-.04.07.68.19.76.2l.22.04c.08.02.17.05.24-.03z"/><path d="m19.35 2.91.06.06.32.03.05-.03s.21.21.31.1c.02-.02-.03-.08-.05-.08l-.23-.08c-.12-.04-.23.1-.22.02v-.06s-.15.05-.15.05c-.08-.11-.24-.14-.33-.02l.15.05s.08-.05.1-.03z"/><path d="m22.65 4.26-.18.12.28.03c.07 0 .17.06.24.06l-.08.07.19-.02h.12c.24-.04-.21-.11-.24-.12l-.19-.07s-.1-.08-.13-.06z"/><path d="m23.65 5.17c-.11-.07-.21-.12-.31-.17l-.18-.19.06-.13s-.07-.02-.08 0l-.04.07s-.02.08-.02.13l-.22-.09-.17-.07s-.06 0-.07.01c-.01 0 0 .04.02.05l.05.02.32.12s.06.02.09.02c0 .02.02.03.04.04h.03l-.05.09c.29-.19.26.11.55.07z"/><path d="m29.39 18.97.03.2c0 .06-.09.18-.13.24l-.29.5c-.07.12-.16.24-.13.39.06-.14.12-.26.19-.39l.11-.2.24-.42c.06-.1.13-.23-.02-.32z"/><path d="m23.95 5.33.12.16h.18s.03.15.03.15l.19-.03s.02-.06.01-.06c-.1.05-.05-.09-.39-.2-.06-.02-.12-.04-.14-.02z"/><path d="m18.17 2.75c.22.02.43.05.65.12.04.01.11 0 .16 0h.09s0-.09 0-.06c-.09 0-.1 0-.16-.02-.17-.06-.35-.06-.53-.08l-.48-.06c-.07 0-.15.02-.19.05.25-.04.22.02.45.04z"/><path d="m20.93 3.8.34.04s0 .06 0 .06l.2-.06c-.24-.14-.26 0-.45-.13-.05-.04-.16-.03-.21.04h.17s-.05.05-.05.05z"/><path d="m28.7 9.3s0 .06 0 .07l.14.29c.01.11 0 .23.14.23-.05-.12-.07-.21-.1-.33l-.12-.27s-.06 0-.06.02z"/><path d="m23.45 4.54s-.03.04-.04.04l-.15.06c.4.13.05.1.39.08h.09c-.04-.12-.17-.12-.27-.11l.02-.06s-.04-.02-.05-.01z"/><path d="m8.19 5.45.41-.24.16-.21c-.23.09-.37.28-.46.29-.03.03-.08.1-.11.16z"/><path d="m13.22 3.77-.03.17.16-.2s.05.04.08.1c-.01.07.06-.15.09-.2l-.06.02c-.07.02-.18.08-.24.11z"/><path d="m13.52 3.78.19-.18-.17.04s0 .06-.02.14z"/><path d="m13.53 3.64s0 0 0 0z"/><path d="m26.28 23.88c-.07.11-.11.19-.15.28l.15-.14c-.05.09-.08.17-.11.28.05.06.19-.17.16-.17h-.06s.06-.1.07-.13c0-.03-.04-.08-.06-.11z"/><path d="m25.44 25.42s-.07 0-.06.02l.04.07s-.02.02-.03.02l-.16.08s0 .09-.01.09h-.08c.06-.09.12-.15.23-.21 0 0-.04-.02-.05-.02l-.05.03c-.1.07-.2.14-.3.19l.02.06s-.02.02-.05.04c.02 0 .09.03.12.04.03 0 .07-.06.09-.07l.05-.02s-.02.03-.04.05l.09-.07.14-.06s.02-.04.02-.08l.03-.02s.18-.08.18-.08c0-.1 0-.14 0-.21-.09.06-.15.1-.19.16z"/><path d="m23.72 4.8s.02.04.03.04l.19.06s.08-.06.1-.05l.08.06s.06.03.06.02c0-.02.02-.06 0-.06l-.06-.03-.12-.05c-.08-.03-.15-.03-.24 0l-.04-.03s-.03.02-.02.03z"/><path d="m27.21 23.91c-.06.06-.17.16-.23.23.08.01.1-.03.15-.09 0 0 .02.03 0 .04l-.04.04s-.06.06-.06.08.05.03.09.05c0-.08.03-.14.09-.21l.14-.2c-.05-.02-.07-.02-.1-.03-.02 0-.04.08-.06.09z"/><path d="m26.5 7.69s.02-.03 0-.03l-.06-.02-.15-.04c-.06.05.3.35.33.27.02-.02 0-.1-.03-.1h-.1s-.05-.02-.05-.02-.01-.04 0-.04h.06s0-.02 0-.02z"/><path d="m14.16 3.63.05-.03c.06-.03.11-.12.1-.16-.19.09-.1-.05-.34.09.07.06.11.04.18.03l-.03.05s.03.02.04.02z"/><path d="m28.5 8.96c.11.08.16.29.21.25.02-.02.07-.05.07-.05-.16 0-.07-.21-.22-.26-.02 0-.08.06-.07.06z"/><path d="m26.38 6.96c-.08.02.27.37.29.22-.09-.13-.17-.18-.29-.22z"/><path d="m20.32 4.16h.08c.34-.04.25.09.49.08.02 0 .05-.06.04-.06h-.06c-.08 0-.16-.04-.23-.06-.14-.03-.26-.06-.4-.1-.04-.01-.09 0-.13.03l.23.04s-.03.07 0 .07z"/><path d="m26.54 5.94.36.28c.06-.1 0-.13-.09-.18l-.2-.11s-.06.02-.06 0c0-.01 0-.03 0-.04l.05-.04h-.08s-.02-.05-.03-.1l-.09.11c.07 0 .09.03.15.08z"/><path d="m29.85 17.39.03.1s-.06.04-.06.06l.03.21c.04-.17.06-.3.07-.48-.05.02-.09.08-.08.1z"/><path d="m12.74 4.1c.1-.06.15-.1.23-.19h-.17s-.05.1-.04.11l-.1-.05z"/><path d="m8.13 6.06-.21.22s.03.09.02.07c.04-.14.18-.1.16-.16l-.02-.04s.07.02.08 0l.03-.08s0-.05 0-.05h-.03s-.02.03-.02.04z"/><path d="m25.5 19.27-.19.4h.1s.1-.12 0-.11c.02-.09.07-.16.16-.24l-.08-.05z"/><path d="m27.82 7.23s.1 0 .1 0l-.07.03s0 .04.02.05c0 0 .06.01.07 0l.02-.12-.17-.17c-.09.07-.03.2.03.2z"/><path d="m6.54 6.99-.15.15c-.09.09-.17.2-.23.3l.31-.33s.06-.08.07-.13z"/><path d="m30.36 16.94c-.08.11-.09.23-.08.35.02.02.11-.04.1-.06l-.02-.09z"/><path d="m26.09 6.08v-.06s-.15 0-.15 0-.05 0-.06 0c0 0 0 .02.02.02l.04.02s.05.07.07.06l.08-.03-.02.06h.1s.01 0 0 .01l-.07.05c.06.02.15.03.22-.01-.04-.07-.12-.13-.22-.12z"/><path d="m5.77 8 .07-.13c.05-.09.1-.19.19-.26l.06-.05s-.02-.03-.02-.02c-.18.2-.15 0-.26.3-.04.11-.18.18-.21.31.07-.03.14-.09.17-.15z"/><path d="m7.74 7.12c.11-.09.17-.18.3-.17l-.02-.09c-.02-.07-.29.2-.28.26z"/><path d="m9.19 4.9.46-.23c-.07-.02-.51.16-.46.23z"/><path d="m22.47 3.81h.07s.08.06.11.06.09-.04.12-.07l-.38-.06c.02.06.04.08.08.07z"/><path d="m26.11 6.73c.03.12.13.19.24.19-.06-.11-.14-.16-.24-.19z"/><path d="m27.41 23.65s.06.06.07.05l.05-.07s.03-.12 0-.16z"/><path d="m27.69 7.52s.01-.01.02-.02l-.18-.06s-.04-.02-.05-.02v.04s.03.01.04.02l.05.02s-.01.06 0 .07l.18.21s.04.05.05.04c0 0 .01-.03.02-.04l.07-.11-.12.09-.17-.24s.09.01.1 0z"/><path d="m27.71 7.5s.01 0 0 0z"/><path d="m29.86 17.99-.09-.18c-.05.14-.07.25-.09.38h.06s.03.01.03 0l-.02-.06s-.03-.11 0-.12l.12-.02z"/><path d="m10.88 4.64-.03-.03-.12.06s.01.07.03.09c.05-.05.11-.08.18-.11l-.06-.02z"/><path d="m28.48 8.88s.1-.03.09-.05l-.07-.07s0-.06-.02-.06l-.08-.02.08.21z"/><path d="m24.98 5.87-.16-.05c.1.1.2.17.33.21 0-.02.02-.04.02-.05-.12-.02-.15-.05-.2-.11z"/><path d="m23.56 5.28c.11-.02.21-.02.33 0-.1-.1-.25-.12-.33 0z"/><path d="m27.56 23.42s.07.06.09.03c.04-.06.07-.17.04-.21l-.12.18z"/><path d="m30.51 16.03c-.07.11-.09.21-.06.33l.05-.16c.02-.06.04-.12.01-.18z"/><path d="m28.66 20.32c-.08.09-.14.18-.13.32.03-.04.05-.09.07-.15z"/><path d="m25.35 6.13.02.1h.2c-.09-.08-.14-.09-.22-.1z"/><path d="m26.98 23.6c.1-.04.18-.11.23-.25-.08.06-.15.15-.23.25z"/><path d="m23.13 4.1h.08s-.02.03-.01.04l.15-.06c-.07-.05-.15-.06-.22-.04 0 .04 0 .09 0 .06z"/><path d="m26.47 22.24.2-.23-.03-.07z"/><path d="m22.02 3.63c.06.06.14.09.22.08-.05-.09-.13-.1-.22-.08z"/><path d="m9.94 4.5s.09 0 .12 0l.27-.1-.1.24.77-.13.3-.05s-.01.02-.02.06c-.05 0-.09-.01-.14 0l.05.02s0 0 0 0l-.04.07c.06 0 .13-.03.19-.06l.23-.12v.08s.28-.11.42-.16c.18.01.4-.02.55-.12.03-.02.05-.08.06-.14l.07-.11-.06.02c0-.11-.02-.22-.06-.21-.18.03-.27.16-.29.09l-.04-.13c-.26.41-.33 0-.84.3-.19.11-.42.12-.64.15.06-.04.13-.08.19-.12-.11 0-.15.06-.23.1-.04 0-.06 0-.03.03-.03 0-.06 0-.08.01 0-.02.02-.04.02-.06l-.18.09c-.13.04-.24.09-.38.11-.03 0-.11.04-.11.07l.02.07c-.11.03-.19.09-.26.17.1-.04.18-.09.27-.16z"/><path d="m24.3 4.45c-.09 0-.16 0-.23 0 .08.08.16.07.23 0z"/><path d="m27.37 14.22c.05-.09.07-.17.03-.28-.02.09-.03.18-.03.28z"/><path d="m28.61 20.66s-.06.06-.04.08.07.07.07.05l.02-.08s-.04-.06-.05-.05z"/><path d="m13.08 3.95s.02-.05.02-.06c-.02-.03-.05-.07-.06-.06l-.04.05s.07.02.06.03l-.05.07.09-.03z"/><path d="m29.95 17.11s-.03.02-.07.02c0 .05.03.13.08.15l.02-.33-.08.08s.06.06.05.08z"/><path d="m23.99 4.35-.19-.07c.03.07.09.15.19.07z"/><path d="m27.04 7.5s-.07-.09-.08-.06l-.03.07s.03.06.04.05l.07-.05z"/><path d="m30.01 16.7c.05-.06.06-.13.03-.21-.02.07-.04.13-.03.21z"/><path d="m30.16 18.59s.03-.09.03-.15l-.08.07s.03.08.05.09z"/><path d="m7.74 5.74c.08.03.16-.04.22-.11.05-.03.04-.03-.02 0z"/><path d="m20.99 4.26.13.03.24.04c-.13-.08-.24-.09-.36-.07z"/><path d="m27.44 22.65v-.07s-.06.07-.09.13c.03 0 .09-.03.09-.05z"/><path d="m16.31 2.69s-.14-.04-.15.03c.04.02.12 0 .15-.03z"/><path d="m25.57 21.57c-.09.06-.13.13-.15.2.08-.07.12-.13.15-.2z"/><path d="m20.57 3.09-.19.03.01.08z"/><path d="m5.31 8.52c-.04.06-.08.12-.09.18.08-.04.1-.1.09-.18z"/><path d="m27.17 16.4-.06.21c.08-.04.11-.11.06-.21z"/><path d="m25.4 5.1-.08.03.16.07c0-.1-.04-.12-.08-.11z"/><path d="m26.87 16.5c-.06.06-.1.14-.09.22.05-.08.08-.13.09-.22z"/><path d="m23.33 4.17h.05s.03.06.04.05l.06-.06s-.06-.05-.08-.05c-.03 0-.07.01-.09.02 0 0 0 .04.02.04z"/><path d="m7.33 6.13-.21.18c.09-.02.16-.07.21-.18z"/><path d="m24.54 5.68-.05.11.16-.1s-.1-.03-.11 0z"/><path d="m20.81 3.23c-.06-.05-.14-.06-.22-.01l.13.02s.05 0 .09-.01z"/><path d="m27.46 6.77s-.02-.11-.05-.1l-.07.04s.09.09.12.06z"/><path d="m26.43 23.81c-.02.05-.02.11.03.16 0-.06 0-.11-.03-.16z"/><path d="m27.23 6.45-.1-.12c-.02.07-.02.1 0 .11h.1z"/><path d="m25.33 6.07c-.07-.01-.16 0-.17.12z"/><path d="m25.9 21.06c-.06.05-.09.11-.12.18.06-.04.1-.09.12-.18z"/><path d="m28.23 21.6s.05-.04.06-.06l-.12-.02s.04.07.06.08z"/><path d="m28.25 7.7.16.08c-.03-.1-.1-.1-.16-.08z"/><path d="m26.73 7.23s-.05.01-.07.03l.15.04-.07-.08z"/><path d="m21.62 3.93s.02-.06 0-.06c-.01 0-.05-.02-.06 0 0 .02-.03.07-.02.07h.07z"/><path d="m24.98 26.18.12-.11c-.07 0-.13.03-.12.11z"/><path d="m8.72 5.12.16-.07-.03-.06z"/><path d="m11.04 4-.07.11.13-.08c-.02-.05-.04-.08-.05-.03z"/><path d="m26.73 14.52c.06-.06.06-.11.02-.17 0 .06-.02.12-.02.17z"/><path d="m5.51 8.31v-.07s-.03-.03-.04-.02c0 0-.02.04-.02.05l.02.07s.04-.01.04-.02z"/><path d="m24.14 4.38c-.05 0-.1-.02-.12-.02s-.01.06 0 .07l.13-.06z"/><path d="m29.75 17.4c-.04.06-.03.13.02.16 0-.09 0-.12-.02-.16z"/><path d="m25.03 21.78s-.09.09-.13.15c.07-.02.1-.06.13-.15z"/><path d="m16.89 2.7c.06 0 .11 0 .18-.02-.06-.04-.12-.04-.18.02z"/><path d="m20.98 3.31.16.03c-.04-.1-.11-.09-.16-.03z"/><path d="m28.26 21.06.07.02v-.15z"/><path d="m28.63 20.57h.11s.02-.06 0-.07l-.12.07z"/><path d="m25.27 4.93-.13.02.08.04s.05-.04.05-.06z"/><path d="m28.41 8.53-.13-.06c-.02.07.07.09.13.06z"/><path d="m19.67 4.04c-.05-.06-.12-.06-.17-.02z"/><path d="m29.14 19.47s-.04.03-.04.04v.1l.06-.09s-.01-.06-.02-.05z"/><path d="m30.37 16.56s.06.06.05.05v-.13s-.06.07-.05.09z"/><path d="m28.07 7.48.08-.04-.13-.04s.03.09.05.08z"/><path d="m29.61 18.63s.06.05.07.04l-.06-.13s0 .09 0 .09z"/><path d="m30.29 17.36s-.03.05-.02.1l.06-.04s-.02-.06-.03-.06z"/><path d="m20.34 27.92.19-.1c-.09.02-.15.05-.19.1z"/><path d="m11.65 3.78-.04.16.07-.08s-.02-.08-.03-.09z"/><path d="m30.19 17.9s-.02 0 0 .06c.01.04.02.02.04-.03.02-.07 0-.07-.04-.03z"/><path d="m26.41 25.24.16-.07-.03-.06z"/><path d="m27.29 6.58.08-.02-.14-.05s.05.08.06.07z"/><path d="m25.12 25.89s.02-.05.02-.09l-.12.09s.08.01.09 0z"/><path d="m25.12 20.43s.02-.03.03-.04l.02-.06s-.03 0-.04.01l-.02.04s-.04.07-.02.06h.04z"/><path d="m25.04 20.51-.02.04c-.06.1 0 .11.06-.05 0 0-.03 0-.04.01z"/><path d="m20.29 3.16.05-.03-.09-.03s0 .04-.01.06.04.02.06 0z"/><path d="m30.11 18.75s-.05.02-.05.02l.09.09c-.02-.08-.02-.11-.04-.11z"/><path d="m26.88 16.32-.04.14c.07-.04.08-.09.04-.14z"/><path d="m28.06 21.78s.09.06.08.02v-.06s-.09.02-.08.03z"/><path d="m27.95 22.03-.02-.09s-.06.11.02.09z"/><path d="m15.26 3.84.1-.09c-.05 0-.14.03-.1.09z"/><path d="m21.76 3.45-.13.06.07.02s.03-.03.06-.08z"/><path d="m27.94 22.83-.02.04s-.04.07-.02.06c0 0 .03 0 .04-.01l.02-.04s.04-.07.02-.06c0 0-.03 0-.04.01z"/><path d="m26.4 5.79s0-.07 0-.07l-.08.08s.09 0 .09-.01z"/><path d="m16.48 2.71.13-.03c-.05-.05-.11-.02-.13.03z"/><path d="m6.66 6.83-.09.13.09-.04s0-.06 0-.09z"/><path d="m19.37 28.3c.07-.02.12-.05.17-.09-.07.02-.12.05-.17.09z"/><path d="m6.78 6.69v.07s.1-.08.1-.08c-.02-.01-.1 0-.1.02z"/><path d="m11.78 3.81-.06-.04s-.02.06 0 .07l.06.02s.02-.06 0-.05z"/><path d="m27.24 24.5.1-.09c-.05 0-.14.03-.1.09z"/><path d="m21.25 3.33h-.1s.05.04.05.04.05-.03.05-.04z"/><path d="m25.75 19.11s-.02 0-.04.02v.07s.02 0 .03 0l.02-.08z"/><path d="m21.87 3.59-.03-.04s-.07 0-.06.01c0 .02.09.04.09.03z"/><path d="m21.88 3.53h.1c-.06-.06-.1-.07-.1 0z"/><path d="m28.45 20.68s-.02.07-.01.07h.05c-.03-.1-.04-.11-.04-.07z"/><path d="m24.75 4.78s.06-.04.05-.04l-.07-.03s-.02 0-.02.02c.01.02.04.06.04.05z"/><path d="m29.4 20.16s0 .04.02.04c0 0 .04 0 .03-.02v-.06s-.05.02-.06.03z"/><path d="m26.74 21.8s0 0 .06 0v-.08s-.06.08-.06.08z"/><path d="m28.36 21.17.11.04-.06-.07s-.05.02-.05.03z"/><path d="m23.88 5.36s-.09 0-.1.02c.05.01.09 0 .1-.02z"/><path d="m27.8 22.03s0-.02.02-.08c.02 0 0 0-.03 0l-.04.06s.04.01.05.02z"/><path d="m28.59 7.97-.02-.05s-.05 0-.05.02l.04.06s.04-.02.03-.03z"/><path d="m25.91 5.88-.09.06s.08.02.08.01l.02-.07z"/><path d="m27.84 23.01v.07s.06-.01.06-.02v-.05s-.06 0-.06 0z"/><path d="m16.69 2.72.12-.02c-.06-.06-.1-.02-.12.02z"/><path d="m26.34 23.85.08-.12c-.05 0-.09.06-.08.12z"/><path d="m11.39 3.95.1-.04-.08-.02s-.03.06-.02.06z"/><path d="m11.23 3.98s.04.03.06.02c0 0 .02-.02.03-.03 0 0-.02-.04-.03-.03l-.05.04z"/><path d="m7.32 6.06c-.06.02-.11.05-.14.08.06-.02.11-.05.14-.08z"/><path d="m27.11 6.31s-.09.02-.08.03c.01 0 .04.02.06.02 0 0 .03-.06.02-.06z"/><path d="m26.29 25.34s.08-.06.1-.1c-.06.04-.08.06-.1.1z"/><path d="m27.6 6.84s-.04-.06-.03-.06l-.02.05s-.03.02-.02.03c.02.02.09 0 .08-.02z"/><path d="m21.88 19.97c-.06.02-.11.05-.14.08.06-.02.11-.05.14-.08z"/></g></svg>